<?xml version="1.0" encoding="utf-8"?>
<!-- Generator: Adobe Illustrator 19.2.1, SVG Export Plug-In . SVG Version: 6.00 Build 0)  -->
<svg version="1.1" id="Layer_1" xmlns="http://www.w3.org/2000/svg" xmlns:xlink="http://www.w3.org/1999/xlink" x="0px" y="0px"
	 viewBox="0 0 48 48" style="enable-background:new 0 0 48 48;" xml:space="preserve">
<style type="text/css">
	.st0{fill:#6C808D;}
	.st1{fill:#E6E7E8;}
	.st2{fill:#81BDFF;}
	.st3{fill:#D8D6C9;}
	.st4{fill:#FFFFFF;}
	.st5{fill:#BCBEC0;}
</style>
<g>
	<g>
		<g>
			<path class="st0" d="M4.5,6.6V12h39V6.6c0-1.4-1.2-2.6-2.6-2.6H7.1C5.7,4,4.5,5.2,4.5,6.6z"/>
			<rect x="4.5" y="12" class="st0" width="39" height="8"/>
			<rect x="4.5" y="20" class="st1" width="39" height="8"/>
			<rect x="4.5" y="28" class="st2" width="39" height="8"/>
			<path class="st0" d="M43.5,41.4V36h-39v5.4c0,1.4,1.2,2.6,2.6,2.6h33.8C42.3,44,43.5,42.8,43.5,41.4z"/>
		</g>
		<g>
			<g>
				<path class="st2" d="M40,8.9c0,0-0.1,0-0.1-0.1L39,7.6l-0.9,1.3c0,0.1-0.1,0.1-0.2,0c-0.1,0-0.1-0.1,0-0.2l1-1.4
					c0.1-0.1,0.2-0.1,0.2,0l1,1.4C40.2,8.7,40.2,8.8,40,8.9C40.1,8.9,40.1,8.9,40,8.9z"/>
			</g>
		</g>
		<g>
			<g>
				<path class="st2" d="M40,40.7c0,0-0.1,0-0.1-0.1L39,39.3l-0.9,1.3c0,0.1-0.1,0.1-0.2,0c-0.1,0-0.1-0.1,0-0.2l1-1.4
					c0.1-0.1,0.2-0.1,0.2,0l1,1.4C40.2,40.5,40.2,40.6,40,40.7C40.1,40.6,40.1,40.7,40,40.7z"/>
			</g>
		</g>
		<g>
			<g>
				<path class="st2" d="M39,16.8c0,0-0.1,0-0.1-0.1l-1-1.4c0-0.1,0-0.2,0-0.2c0.1,0,0.2,0,0.2,0l0.9,1.3l0.9-1.3
					c0-0.1,0.1-0.1,0.2,0c0.1,0,0.1,0.1,0,0.2l-1,1.4C39.1,16.8,39,16.8,39,16.8z"/>
			</g>
		</g>
	</g>
	<rect x="4.5" y="12" class="st3" width="39" height="0"/>
	<rect x="7.6" y="7.5" class="st4" width="16.9" height="1.1"/>
	<rect x="7.6" y="15.4" class="st4" width="16.9" height="1.1"/>
	<rect x="7.6" y="38.9" class="st4" width="16.9" height="1.1"/>
	<rect x="13.8" y="23.5" class="st5" width="13.5" height="1.1"/>
	<rect x="13.8" y="31.4" class="st4" width="13.5" height="1.1"/>
</g>
</svg>
