<?xml version="1.0" encoding="utf-8"?>
<!-- Generator: Adobe Illustrator 19.2.1, SVG Export Plug-In . SVG Version: 6.00 Build 0)  -->
<svg version="1.1" id="Layer_1" xmlns="http://www.w3.org/2000/svg" xmlns:xlink="http://www.w3.org/1999/xlink" x="0px" y="0px"
	 viewBox="0 0 48 48" style="enable-background:new 0 0 48 48;" xml:space="preserve">
<style type="text/css">
	.st0{fill:#00C8AB;}
	.st1{fill:#FCFEFD;}
	.st2{fill:#EEEFEF;}
</style>
<g>
	<g>
		<path class="st0" d="M39.2,5H8.8C6.7,5,5,6.7,5,8.8v30.4C5,41.3,6.7,43,8.8,43h30.4c2.1,0,3.8-1.7,3.8-3.8V8.8
			C43,6.7,41.3,5,39.2,5L39.2,5z"/>
	</g>
</g>
<g>
	<path class="st1" d="M19.5,20.8c1-1.7,2.5-2.7,4.4-3c2.2-0.3,4.1,0.3,5.6,2c0.1,0.1,0.2,0.2,0.3,0.3c0.5,0.7,1,1.5,1.1,2.4
		c0.1,0.3,0.2,0.4,0.5,0.3c0.3-0.1,0.2-0.3,0.1-0.5c-0.2-0.5-0.3-1-0.6-1.5c-0.3-0.7-0.8-1.3-1.4-1.7c0-0.5,0-1,0-1.6
		c2.7,0,5.3,0,8,0c0,0.9,0,1.9,0,2.9c-1.7,0-3.3,0-5,0c0,0.8,0,1.5,0,2.3c1.6,0,3.1,0,4.7,0c0,1,0,1.9,0,2.8c-1.6,0-3.2,0-4.8,0
		c0,1.5,0,3,0,4.5c-1,0-2,0-3,0c0-0.5,0-1,0-1.5c0.1-0.1,0.2-0.1,0.2-0.2c0.9-0.9,1.5-1.9,1.8-3.1c0-0.1-0.1-0.3-0.1-0.4
		c-0.2,0-0.4-0.1-0.5,0.2c-0.2,0.6-0.4,1.2-0.7,1.8c-0.2,0.4-0.5,0.8-0.7,1.1c-0.7,0.6-1.4,1.2-2.2,1.6c-1.4,0.5-2.7,0.7-4.1,0.2
		c-0.2-0.4-0.3-0.8-0.5-1.3c-0.8-2-1.6-4-2.4-5.9C20,22.1,19.7,21.4,19.5,20.8z M29.5,22.9c-0.4,0-0.7,0-1,0c-0.3,0-0.4-0.1-0.5-0.3
		c-0.8-2-3.2-2.7-5-1.6c-1.3,0.8-1.9,2.6-1.4,4c0.5,1.5,2.1,2.5,3.7,2.3c1.3-0.2,2.2-0.9,2.7-2.1c0.1-0.2,0.2-0.4,0.5-0.3
		c0.3,0,0.7,0,1,0C29.5,24.2,29.5,23.6,29.5,22.9z"/>
	<path class="st1" d="M22.3,29.6c0,0.1,0.1,0.3,0.2,0.5c-0.5,0-1,0-1.4,0c-0.5,0-1.1,0-1.6,0c-0.2,0-0.4-0.1-0.4-0.3
		c-0.1-0.4-0.3-0.8-0.5-1.2c-0.1-0.2-0.2-0.3-0.4-0.3c-1.2,0-2.5,0-3.7,0c-0.2,0-0.3,0.1-0.4,0.3c-0.2,0.4-0.3,0.9-0.5,1.3
		c0,0.1-0.2,0.2-0.3,0.2c-1,0-2,0-3,0c0.2-0.4,0.3-0.8,0.5-1.2c1.4-3.7,2.9-7.3,4.3-11c0.1-0.2,0.2-0.3,0.5-0.3c0.5,0,1,0,1.5,0
		c0.2,0,0.3,0.1,0.4,0.3c0.4,1.1,0.9,2.2,1.4,3.3c0.1,0.1,0.2,0.3,0.2,0.4c0,0.1,0,0.3,0.1,0.4c0.6,1.6,1.3,3.1,1.9,4.7
		C21.5,27.7,21.9,28.6,22.3,29.6z M15.3,25.4c0.7,0,1.3,0,2,0c-0.3-0.9-0.7-1.8-1-2.8C16,23.6,15.6,24.5,15.3,25.4z"/>
	<path class="st2" d="M22.3,29.6c-0.4-1-0.8-1.9-1.2-2.9c-0.6-1.6-1.3-3.1-1.9-4.7c0-0.1-0.1-0.3-0.1-0.4c0.1-0.3,0.3-0.6,0.4-0.8
		c0.2,0.6,0.5,1.3,0.7,1.9c0.8,2,1.6,4,2.4,5.9c0.2,0.4,0.3,0.8,0.5,1.3C22.9,29.8,22.6,29.7,22.3,29.6z"/>
	<path class="st2" d="M29.5,28.1c0.2-0.4,0.5-0.7,0.7-1.1c0.3-0.6,0.5-1.2,0.7-1.8c0.1-0.3,0.3-0.3,0.5-0.2c0.1,0,0.1,0.2,0.1,0.4
		c-0.3,1.2-0.9,2.3-1.8,3.1c-0.1,0.1-0.2,0.1-0.2,0.2C29.6,28.4,29.6,28.3,29.5,28.1z"/>
	<path class="st2" d="M29.6,19.2c0.6,0.4,1.1,1.1,1.4,1.7c0.2,0.5,0.4,1,0.6,1.5c0.1,0.2,0.2,0.4-0.1,0.5c-0.3,0.1-0.5,0-0.5-0.3
		c-0.2-0.9-0.6-1.7-1.1-2.4c-0.1-0.1-0.2-0.2-0.3-0.3C29.5,19.5,29.5,19.4,29.6,19.2z"/>
</g>
</svg>
