<?xml version="1.0" encoding="utf-8"?>
<!-- Generator: Adobe Illustrator 17.0.0, SVG Export Plug-In . SVG Version: 6.00 Build 0)  -->
<!DOCTYPE svg PUBLIC "-//W3C//DTD SVG 1.1//EN" "http://www.w3.org/Graphics/SVG/1.1/DTD/svg11.dtd">
<svg version="1.1" id="Layer_1" xmlns="http://www.w3.org/2000/svg" xmlns:xlink="http://www.w3.org/1999/xlink" x="0px" y="0px"
	 width="48px" height="48px" viewBox="0 0 48 48" enable-background="new 0 0 48 48" xml:space="preserve">
<g>
	<path fill="#4783B5" d="M45.5,34.25c0,1.583-1.283,2.867-2.867,2.867H5.367c-1.583,0-2.867-1.283-2.867-2.867V15.975
		c0-1.583,1.283-2.867,2.867-2.867h37.267c1.583,0,2.867,1.283,2.867,2.867V34.25z"/>
	<path fill="#5395D6" d="M45.5,33.295c0,1.583-1.283,2.867-2.867,2.867H5.367c-1.583,0-2.867-1.283-2.867-2.867V15.02
		c0-1.583,1.283-2.867,2.867-2.867h37.267c1.583,0,2.867,1.283,2.867,2.867V33.295z"/>
	<g>
		<g>
			<g>
				<polygon fill="#E6E7E8" points="24.107,25.325 28.547,41.642 40.426,29.763 				"/>
			</g>
			
				<rect x="32.16" y="31.015" transform="matrix(0.7071 -0.7071 0.7071 0.7071 -15.2933 35.2021)" fill="#E6E7E8" width="5.371" height="10.093"/>
		</g>
	</g>
	<g>
		<g>
			<path fill="#F1F2F2" d="M28.573,23.801c-0.461,0.114-0.928-0.167-1.042-0.628l-0.017-0.066c-0.115-0.461,0.167-0.928,0.628-1.043
				l3.562-0.883c0.461-0.115,0.928,0.167,1.043,0.628l0.016,0.066c0.115,0.461-0.167,0.928-0.628,1.043L28.573,23.801z"/>
			<path fill="#F1F2F2" d="M20.657,29.273c0.132-0.457,0.609-0.721,1.066-0.589l0.065,0.019c0.457,0.132,0.72,0.609,0.589,1.066
				l-1.017,3.526c-0.132,0.457-0.608,0.72-1.066,0.588l-0.065-0.019c-0.457-0.132-0.721-0.609-0.589-1.066L20.657,29.273z"/>
			<path fill="#F1F2F2" d="M17.498,24.703c0.461-0.115,0.928,0.167,1.042,0.629l0.016,0.066c0.115,0.461-0.166,0.928-0.628,1.043
				l-3.562,0.883c-0.461,0.114-0.928-0.167-1.043-0.628l-0.017-0.066c-0.114-0.461,0.168-0.928,0.629-1.042L17.498,24.703z"/>
			<path fill="#F1F2F2" d="M19.876,19.681c0.33,0.342,0.319,0.887-0.023,1.217l-0.049,0.047c-0.342,0.33-0.887,0.32-1.217-0.023
				l-2.545-2.643c-0.33-0.342-0.32-0.888,0.022-1.217l0.05-0.047c0.342-0.33,0.887-0.319,1.217,0.023L19.876,19.681z"/>
			<path fill="#F1F2F2" d="M25.414,19.23c-0.132,0.457-0.609,0.72-1.066,0.589L24.284,19.8c-0.457-0.132-0.721-0.609-0.59-1.066
				l1.017-3.526c0.132-0.457,0.609-0.721,1.066-0.589l0.066,0.019c0.457,0.132,0.72,0.609,0.588,1.066L25.414,19.23z"/>
		</g>
	</g>
</g>
</svg>
