<?xml version="1.0" encoding="utf-8"?>
<!-- Generator: Adobe Illustrator 19.2.1, SVG Export Plug-In . SVG Version: 6.00 Build 0)  -->
<svg version="1.1" id="Layer_1" xmlns="http://www.w3.org/2000/svg" xmlns:xlink="http://www.w3.org/1999/xlink" x="0px" y="0px"
	 viewBox="0 0 48 48" style="enable-background:new 0 0 48 48;" xml:space="preserve">
<style type="text/css">
	.st0{fill:#F1F2F2;}
	.st1{fill:#6C808D;}
	.st2{fill:#ED7461;}
	.st3{fill:#D1D3D4;}
</style>
<circle class="st0" cx="31.4" cy="23.5" r="3.4"/>
<path class="st1" d="M18.1,33.8H16v-3.7h3.7v2.1C19.7,33,19,33.8,18.1,33.8z"/>
<path class="st2" d="M12.1,30.3c-3.7,0-6.8-3-6.8-6.8s3-6.8,6.8-6.8s6.8,0,6.8,0v13.5H12.1z"/>
<path class="st3" d="M18.8,16.8c0,2,0,11.6,0,13.5c8.5,0.2,11.3,7,11.3,7V25.6v-4.1V9.8C30.1,9.8,27.3,16.5,18.8,16.8z"/>
<path class="st2" d="M13.4,39.3h1.5c0.7,0,1.3-0.6,1.3-1.3v-8.3h-5.9l1.8,8.3C12.1,38.7,12.7,39.3,13.4,39.3z"/>
<g>
	<path class="st3" d="M41.9,24.2h-3.5c-0.4,0-0.7-0.3-0.7-0.7c0-0.4,0.3-0.7,0.7-0.7h3.5c0.4,0,0.7,0.3,0.7,0.7
		C42.6,23.9,42.3,24.2,41.9,24.2z"/>
</g>
<g>
	<path class="st3" d="M36.9,19.2c-0.2,0-0.4-0.1-0.5-0.2c-0.3-0.3-0.3-0.7,0-1l2.5-2.5c0.3-0.3,0.7-0.3,1,0s0.3,0.7,0,1L37.4,19
		C37.2,19.2,37,19.2,36.9,19.2z"/>
</g>
<g>
	<g>
		<path class="st3" d="M39.3,31.7c-0.2,0-0.4-0.1-0.5-0.2L36.4,29c-0.3-0.3-0.3-0.7,0-1s0.7-0.3,1,0l2.5,2.5c0.3,0.3,0.3,0.7,0,1
			C39.7,31.6,39.5,31.7,39.3,31.7z"/>
	</g>
</g>
<path class="st1" d="M31.7,39.3h-0.6c-0.5,0-1-0.4-1-1V8.7c0-0.5,0.4-1,1-1h0.6c0.5,0,1,0.4,1,1v29.6C32.7,38.9,32.3,39.3,31.7,39.3
	z"/>
</svg>
