<?xml version="1.0" encoding="utf-8"?>
<!-- Generator: Adobe Illustrator 17.0.0, SVG Export Plug-In . SVG Version: 6.00 Build 0)  -->
<!DOCTYPE svg PUBLIC "-//W3C//DTD SVG 1.1//EN" "http://www.w3.org/Graphics/SVG/1.1/DTD/svg11.dtd">
<svg version="1.1" id="Layer_1" xmlns="http://www.w3.org/2000/svg" xmlns:xlink="http://www.w3.org/1999/xlink" x="0px" y="0px"
	 width="48px" height="48px" viewBox="0 0 48 48" enable-background="new 0 0 48 48" xml:space="preserve">
<g>
	<g>
		<path fill="#BCBEC0" d="M23.868,32.795c0,0.989-0.801,1.79-1.79,1.79H1.79c-0.989,0-1.79-0.801-1.79-1.79V15.417
			c0-0.989,0.801-1.79,1.79-1.79h20.288c0.989,0,1.79,0.801,1.79,1.79V32.795z"/>
		<path fill="#BCBEC0" d="M48,32.795c0,0.989-0.801,1.79-1.79,1.79H25.922c-0.989,0-1.79-0.801-1.79-1.79V15.417
			c0-0.989,0.801-1.79,1.79-1.79H46.21c0.989,0,1.79,0.801,1.79,1.79V32.795z"/>
	</g>
	<g>
		<path fill="#F1F2F2" d="M41.317,36.536c0,1.435-1.163,2.598-2.598,2.598H9.28c-1.435,0-2.598-1.163-2.598-2.598V11.317
			c0-1.435,1.163-2.598,2.598-2.598h29.44c1.435,0,2.598,1.163,2.598,2.598L41.317,36.536L41.317,36.536z"/>
		<g>
			<path fill="#83BEFF" d="M20.913,27.632c3.315-2.72,7.556-4.354,12.179-4.354c1.528,0,3.013,0.184,4.438,0.521V12.562H10.471
				v14.566c1.392-0.321,2.84-0.496,4.329-0.496C16.938,26.633,18.992,26.987,20.913,27.632z"/>
			<path fill="#02AF92" d="M15.279,35.291c1.216-3.006,3.166-5.635,5.634-7.66c-1.921-0.645-3.975-0.999-6.113-0.999
				c-1.49,0-2.937,0.175-4.329,0.496v8.163H15.279z"/>
			<path fill="#00C8AB" d="M33.092,23.277c-4.623,0-8.864,1.634-12.179,4.354c-2.468,2.025-4.418,4.654-5.634,7.66h22.25V23.798
				C36.104,23.461,34.62,23.277,33.092,23.277z"/>
		</g>
		<circle fill="#F1F2F2" cx="30.142" cy="18.217" r="2.949"/>
	</g>
	<g>
		<g>
			<circle fill="#D1D3D4" cx="18.197" cy="43.966" r="1.726"/>
			<circle fill="#BCBEC0" cx="24" cy="43.966" r="1.726"/>
			<circle fill="#D1D3D4" cx="29.803" cy="43.966" r="1.726"/>
		</g>
	</g>
</g>
</svg>
