<?xml version="1.0" encoding="utf-8"?>
<!-- Generator: Adobe Illustrator 19.2.1, SVG Export Plug-In . SVG Version: 6.00 Build 0)  -->
<svg version="1.1" id="Layer_1" xmlns="http://www.w3.org/2000/svg" xmlns:xlink="http://www.w3.org/1999/xlink" x="0px" y="0px"
	 viewBox="0 0 48 48" style="enable-background:new 0 0 48 48;" xml:space="preserve">
<style type="text/css">
	.st0{fill:#ED7461;}
	.st1{fill:#FECE66;}
	.st2{fill:#00C8AB;}
	.st3{fill:#5395D6;}
	.st4{fill:#E6E7E8;}
	.st5{fill-rule:evenodd;clip-rule:evenodd;fill:#FFFFFF;}
</style>
<g>
	<g>
		<path class="st0" d="M41,14.4l-2.5,0v5.4l2.5,0c0.5,0,0.9-0.4,0.9-0.9v-3.6C41.9,14.8,41.5,14.4,41,14.4z"/>
	</g>
	<g>
		<path class="st1" d="M41,21.4l-2.5,0v5.4l2.5,0c0.5,0,0.9-0.4,0.9-0.9l0-3.6C41.9,21.8,41.5,21.4,41,21.4z"/>
	</g>
	<g>
		<path class="st2" d="M41,28.5l-2.5,0v5.4l2.5,0c0.5,0,0.9-0.4,0.9-0.9v-3.6C41.9,28.9,41.5,28.5,41,28.5z"/>
	</g>
</g>
<g>
	<g>
		<path class="st3" d="M34.9,6.4l-21.6,0c-2,0-3.5,1.6-3.5,3.5l0,28.3c0,2,1.6,3.5,3.5,3.5l21.6,0c2,0,3.5-1.6,3.5-3.5l0-28.3
			C38.5,8,36.9,6.4,34.9,6.4L34.9,6.4z"/>
	</g>
</g>
<g>
	<g>
		<g>
			<path class="st4" d="M9.7,36.7h-2c-1.3,0-2.3-1-2.3-2.3c0-1.3,1-2.3,2.3-2.3h4.2c0.4,0,0.7,0.3,0.7,0.7c0,0.4-0.3,0.7-0.7,0.7
				H7.7c-0.5,0-0.9,0.4-0.9,0.9c0,0.5,0.4,0.9,0.9,0.9h2"/>
		</g>
	</g>
	<g>
		<g>
			<path class="st4" d="M9.7,29.8h-2c-1.3,0-2.3-1-2.3-2.3c0-1.3,1-2.3,2.3-2.3h4.2c0.4,0,0.7,0.3,0.7,0.7c0,0.4-0.3,0.7-0.7,0.7
				H7.7c-0.5,0-0.9,0.4-0.9,0.9c0,0.5,0.4,0.9,0.9,0.9h2"/>
		</g>
	</g>
	<g>
		<g>
			<path class="st4" d="M9.7,22.9h-2c-1.3,0-2.3-1-2.3-2.3c0-1.3,1-2.3,2.3-2.3h4.2c0.4,0,0.7,0.3,0.7,0.7s-0.3,0.7-0.7,0.7H7.7
				c-0.5,0-0.9,0.4-0.9,0.9c0,0.5,0.4,0.9,0.9,0.9h2"/>
		</g>
	</g>
	<g>
		<g>
			<path class="st4" d="M9.7,16h-2c-1.3,0-2.3-1-2.3-2.3c0-1.3,1-2.3,2.3-2.3l4.2,0c0.4,0,0.7,0.3,0.7,0.7s-0.3,0.7-0.7,0.7l-4.2,0
				c-0.5,0-0.9,0.4-0.9,0.9c0,0.5,0.4,0.9,0.9,0.9l2,0"/>
		</g>
	</g>
</g>
<path class="st5" d="M20.2,16.9c0.7,0,1.3,0.5,1.4,1.2c0.1,0.9,0.4,1.8,0.7,2.6c0.2,0.5,0.1,1.1-0.3,1.5l-0.6,0.6
	c-0.1,0.1-0.2,0.4-0.1,0.5c0.4,0.7,1,1.4,1.6,1.9c0.6,0.6,1.2,1.1,1.9,1.6c0.2,0.1,0.4,0.1,0.5-0.1l0.6-0.6c0.4-0.4,1-0.5,1.5-0.3
	c0.8,0.4,1.7,0.6,2.6,0.7c0.7,0.1,1.2,0.7,1.2,1.4l-0.1,2c0,0.4-0.2,0.7-0.5,1c-0.3,0.2-0.6,0.4-1,0.3c-3.3-0.4-6.3-1.8-8.7-4.2
	c-2.3-2.3-3.8-5.4-4.2-8.7c0-0.4,0.1-0.7,0.3-1c0.2-0.3,0.6-0.5,1-0.5L20.2,16.9L20.2,16.9z"/>
</svg>
