<?xml version="1.0" encoding="utf-8"?>
<!-- Generator: Adobe Illustrator 19.2.1, SVG Export Plug-In . SVG Version: 6.00 Build 0)  -->
<svg version="1.1" id="Layer_1" xmlns="http://www.w3.org/2000/svg" xmlns:xlink="http://www.w3.org/1999/xlink" x="0px" y="0px"
	 viewBox="0 0 48 48" style="enable-background:new 0 0 48 48;" xml:space="preserve">
<style type="text/css">
	.st0{fill:#E6E7E8;}
	.st1{fill:#6C808D;}
</style>
<g>
	<path class="st0" d="M16.4,15.4c0-1.2-1-2.1-2.1-2.1l-8.1,0c-1.2,0-2.1,1-2.1,2.1v17.5c0,1.2,1,2.1,2.1,2.1l8.1,0
		c1.2,0,2.1-1,2.1-2.1L16.4,15.4z"/>
	<path class="st0" d="M30.2,15.4c0-1.2-1-2.1-2.1-2.1l-8.1,0c-1.2,0-2.1,1-2.1,2.1v17.5c0,1.2,1,2.1,2.1,2.1l8.1,0
		c1.2,0,2.1-1,2.1-2.1L30.2,15.4z"/>
	<path class="st1" d="M9.7,20.8l-1.9,0.5l-0.5-2l3.2-1h1.7v11.2H9.7V20.8z"/>
	<path class="st1" d="M20.1,27.6l3.7-3c1.4-1.1,1.9-1.7,1.9-2.7c0-0.9-0.6-1.4-1.5-1.4c-0.9,0-1.4,0.5-2.3,1.5l-1.7-1.4
		c1.1-1.5,2.2-2.3,4.1-2.3c2.3,0,3.8,1.3,3.8,3.4v0c0,1.9-1,2.8-2.9,4.3l-1.8,1.4h4.8v2.1h-8.2V27.6z"/>
	<g>
		<polygon class="st0" points="38.9,33.1 38.9,29.6 35.9,33.1 		"/>
		<path class="st0" d="M44,32.9l0-17.5c0-1.2-1-2.1-2.1-2.1h0v0.9l-2.8,2.7c1.5,0.3,3,1,3,3.1v0c0,2.1-1.5,3.6-4,3.6
			c-2,0-3.4-0.8-4.3-1.9l1.7-1.6c0.8,0.9,1.6,1.3,2.7,1.3c0.9,0,1.6-0.5,1.6-1.3v0c0-0.9-0.8-1.4-2.2-1.4h-1l-0.4-1.6l2.6-2.7h-4.4
			v-1.1h-0.5c-1.2,0-2.1,1-2.1,2.1v17.5c0,1,0.7,1.8,1.7,2l-0.4-1.6l6.1-7h2.1v6.8h1.5v1.8C43.5,34.6,44,33.8,44,32.9z"/>
		<path class="st1" d="M38.7,14.4l-2.6,2.7l0.4,1.6h1c1.4,0,2.2,0.5,2.2,1.4v0c0,0.8-0.7,1.3-1.6,1.3c-1.1,0-1.9-0.5-2.7-1.3
			l-1.7,1.6c1,1.1,2.3,1.9,4.3,1.9c2.5,0,4-1.5,4-3.6v0c0-2.1-1.5-2.9-3-3.1l2.8-2.7v-0.9l-7.5,0v1.1H38.7z"/>
		<path d="M42.7,34.9C42.5,35,42.2,35,41.9,35"/>
		<path class="st1" d="M41.2,33.1v-6.8h-2.1l-6.1,7l0.4,1.6c0.1,0,0.3,0.1,0.4,0.1l8.1,0c0.3,0,0.5-0.1,0.8-0.2v-1.8H41.2z
			 M38.9,33.1h-2.9l2.9-3.5V33.1z"/>
	</g>
</g>
</svg>
