<?xml version="1.0" encoding="utf-8"?>
<!-- Generator: Adobe Illustrator 19.2.1, SVG Export Plug-In . SVG Version: 6.00 Build 0)  -->
<svg version="1.1" id="Layer_1" xmlns="http://www.w3.org/2000/svg" xmlns:xlink="http://www.w3.org/1999/xlink" x="0px" y="0px"
	 viewBox="0 0 48 48" style="enable-background:new 0 0 48 48;" xml:space="preserve">
<style type="text/css">
	.st0{fill:#ED7461;}
	.st1{fill:#FFFFFF;}
	.st2{fill:#F1F2F2;}
	.st3{enable-background:new    ;}
	.st4{fill:#6C808D;}
</style>
<path class="st0" d="M41.3,14.3c1.4,0,2.6,1.2,2.6,2.6V31c0,1.4-1.2,2.6-2.6,2.6H6.6C5.2,33.6,4,32.4,4,31V16.9
	c0-1.4,1.2-2.6,2.6-2.6L41.3,14.3z"/>
<g>
	<g>
		<circle class="st1" cx="23.9" cy="22.2" r="0.8"/>
		<circle class="st1" cx="23.9" cy="25.8" r="0.8"/>
	</g>
	<g>
		<path class="st2" d="M6.4,29.1c0,1.1,0.9,2,2,2h10.9c1.1,0,2-0.9,2-2V24H6.4V29.1z"/>
		<path class="st1" d="M19.3,16.9H8.4c-1.1,0-2,0.9-2,2V24h14.9v-5.1C21.3,17.8,20.4,16.9,19.3,16.9z"/>
	</g>
	<g class="st3">
		<path class="st4" d="M8.5,24L8.5,24c0-1.7,1.1-3,2.6-3c1.5,0,2.6,1.3,2.6,3v0c0,1.7-1,3-2.6,3C9.5,27,8.5,25.7,8.5,24z M12.4,24
			L12.4,24c0-1.1-0.5-1.9-1.3-1.9c-0.8,0-1.3,0.8-1.3,1.8v0c0,1.1,0.5,1.9,1.3,1.9C11.9,25.9,12.4,25.1,12.4,24z"/>
		<path class="st4" d="M15.3,26.4c-0.4-0.4-0.7-1.1-0.7-2.2v0c0-1.8,0.8-3.2,2.6-3.2c0.8,0,1.3,0.2,1.8,0.6l-0.7,1
			c-0.4-0.3-0.7-0.5-1.2-0.5c-0.9,0-1.1,0.8-1.2,1.4c0.3-0.2,0.7-0.4,1.2-0.4c1.2,0,2.1,0.6,2.1,1.9v0c0,1.2-1,2-2.2,2
			C16.2,27,15.7,26.8,15.3,26.4z M17.9,25.1L17.9,25.1c0-0.5-0.4-0.9-1-0.9s-1,0.4-1,0.8v0c0,0.5,0.4,0.9,1,0.9S17.9,25.6,17.9,25.1
			z"/>
	</g>
	<g>
		<path class="st2" d="M26.5,29.1c0,1.1,0.9,2,2,2h10.9c1.1,0,2-0.9,2-2V24H26.5V29.1z"/>
		<path class="st1" d="M39.4,16.9H28.5c-1.1,0-2,0.9-2,2V24h14.9v-5.1C41.3,17.8,40.5,16.9,39.4,16.9z"/>
	</g>
	<g class="st3">
		<path class="st4" d="M29,25.9l1.9-1.6c0.7-0.6,1-0.9,1-1.4c0-0.5-0.3-0.8-0.8-0.8c-0.5,0-0.8,0.3-1.2,0.8L29,22.2
			c0.6-0.8,1.1-1.2,2.2-1.2c1.2,0,2,0.7,2,1.8v0c0,1-0.5,1.5-1.5,2.3l-1,0.7h2.5v1.1H29V25.9z"/>
		<path class="st4" d="M37.5,24.5c-0.3,0.3-0.7,0.4-1.2,0.4c-1.3,0-2.1-0.7-2.1-1.9v0c0-1.2,0.9-2,2.2-2c0.8,0,1.2,0.2,1.7,0.6
			c0.4,0.4,0.7,1.1,0.7,2.2v0c0,1.9-0.9,3.2-2.6,3.2c-0.9,0-1.4-0.3-1.9-0.7l0.7-1c0.4,0.3,0.8,0.5,1.3,0.5
			C37.2,25.9,37.4,25,37.5,24.5z M37.5,23L37.5,23c0-0.5-0.4-0.9-1-0.9c-0.6,0-1,0.4-1,0.9v0c0,0.5,0.4,0.9,1,0.9
			C37.1,23.9,37.5,23.5,37.5,23z"/>
	</g>
</g>
</svg>
