<?xml version="1.0" encoding="utf-8"?>
<!-- Generator: Adobe Illustrator 19.2.1, SVG Export Plug-In . SVG Version: 6.00 Build 0)  -->
<svg version="1.1" id="Layer_1" xmlns="http://www.w3.org/2000/svg" xmlns:xlink="http://www.w3.org/1999/xlink" x="0px" y="0px"
	 viewBox="0 0 48 48" style="enable-background:new 0 0 48 48;" xml:space="preserve">
<style type="text/css">
	.st0{fill:#3F4A5A;}
	.st1{fill:#5395D6;}
	.st2{fill:#FFFFFF;}
</style>
<g>
	<path class="st0" d="M35.4,9.1v1c0,1.3-1,2.3-2.3,2.3c-1.3,0-2.3-1-2.3-2.3v-1l-13.5,0v1c0,1.3-1,2.3-2.3,2.3c-1.3,0-2.3-1-2.3-2.3
		l0-1H5.9l0,33l36.3,0l0-33L35.4,9.1z"/>
	<rect x="8.2" y="14" class="st1" width="31.5" height="25.9"/>
	<g>
		<path class="st0" d="M15.8,6.7c0-0.5-0.4-0.9-0.9-0.9c-0.5,0-0.9,0.4-0.9,0.9v3.4c0,0.5,0.4,0.9,0.9,0.9c0.5,0,0.9-0.4,0.9-0.9
			L15.8,6.7z"/>
	</g>
	<g>
		<path class="st0" d="M33.9,6.7c0-0.5-0.4-0.9-0.9-0.9c-0.5,0-0.9,0.4-0.9,0.9v3.4c0,0.5,0.4,0.9,0.9,0.9c0.5,0,0.9-0.4,0.9-0.9
			V6.7z"/>
	</g>
	<g>
		<g>
			<rect x="9.9" y="15.9" class="st0" width="4.2" height="4.2"/>
		</g>
		<g>
			<rect x="21.8" y="15.9" class="st0" width="4.2" height="4.2"/>
		</g>
		<g>
			<rect x="33.7" y="15.9" class="st0" width="4.2" height="4.2"/>
		</g>
		<g>
			<rect x="9.9" y="21.8" class="st0" width="4.2" height="4.2"/>
		</g>
		<g>
			<rect x="21.8" y="21.8" class="st0" width="4.2" height="4.2"/>
		</g>
		<g>
			<rect x="33.7" y="21.8" class="st0" width="4.2" height="4.2"/>
		</g>
		<g>
			<rect x="9.9" y="27.8" class="st0" width="4.2" height="4.2"/>
		</g>
		<g>
			<rect x="33.7" y="27.8" class="st0" width="4.2" height="4.2"/>
		</g>
		<g>
			<rect x="9.9" y="33.7" class="st0" width="4.2" height="4.2"/>
		</g>
		<g>
			<rect x="15.9" y="33.7" class="st0" width="4.2" height="4.2"/>
		</g>
		<g>
			<rect x="27.8" y="33.7" class="st0" width="4.2" height="4.2"/>
		</g>
	</g>
	<g>
		<path class="st2" d="M29.5,16.4c0.6,0,1.2,0.5,1.2,1.2l0,9.7c-0.8-0.7-1.7-1-2.3-1.1l0-1.4h0c0,0,0,0,0,0l0-7.2
			C28.4,16.9,28.9,16.4,29.5,16.4z M25,24c0.2-0.2,0.5-0.3,0.8-0.3c0.7,0,1.2,0.5,1.2,1.2l0,1.3l-2.4,0l0-1.3c0,0,0,0,0,0
			C24.6,24.5,24.7,24.2,25,24z M22,23.6c0.6,0,1.2,0.5,1.2,1.2c0,0,0,0,0,0l0,1.3l-2.4,0l0-1.3C20.9,24.2,21.4,23.6,22,23.6z
			 M23.9,37.4c-3.8,0-6.8-3-6.8-6.8l0-13c0-0.6,0.5-1.2,1.2-1.2c0.6,0,1.2,0.5,1.2,1.2l0,4.8c0,0,0,0,0,0l0,1.6l0,3.6h0
			c0,1.3,1,3.8,4.2,3.8l0.5,0c-0.6,0.7-0.9,1.8-0.9,3c0,0.4,0.3,0.7,0.7,0.7c0.4,0,0.7-0.3,0.7-0.7c0-1.1,0.3-1.9,0.8-2.4
			c0.5-0.5,1.2-0.6,1.6-0.6l0.4,0c0.4,0,0.7-0.3,0.7-0.7c0-0.4-0.3-0.7-0.6-0.7c0,0-0.2,0-0.5,0l-3.4,0c-2.5,0-2.7-2-2.8-2.4l6.7,0
			c0,0,3.2-0.1,3.2,3.1C30.7,34.3,27.7,37.4,23.9,37.4z"/>
		<g>
			<g>
				<path class="st1" d="M23.9,39.3c-4.8,0-8.8-3.9-8.8-8.8l0-13c0-1.7,1.4-3.1,3.1-3.1s3.1,1.4,3.1,3.1l0,4.1
					c0.9-0.2,1.8,0,2.5,0.6c0.5-0.4,1.2-0.6,1.9-0.6c0.2,0,0.4,0,0.6,0.1l0-4.1c0-1.7,1.4-3.1,3.1-3.1c1.7,0,3.1,1.4,3.1,3.1l0,13.8
					h0C32.2,35.8,28.4,39.3,23.9,39.3z M18.3,15.6c-1.1,0-2,0.9-2,2l0,13c0,4.2,3.4,7.6,7.6,7.6c4.1,0,7.5-3.3,7.6-7.4l0-0.2l0-13
					c0-1.1-0.9-2-2-2c-1.1,0-2,0.9-2,2l0,5.9l-0.9-0.4c-0.3-0.2-0.6-0.2-0.9-0.2c-0.5,0-1,0.2-1.4,0.6l0,0.1l-0.4,0.5l-0.4-0.5
					c-0.4-0.4-0.9-0.6-1.5-0.6c-0.3,0-0.6,0.1-0.9,0.2l-0.9,0.4l0-5.9C20.3,16.5,19.4,15.6,18.3,15.6z"/>
			</g>
			<path class="st0" d="M29.5,15c-1.4,0-2.6,1.1-2.6,2.6l0,5c-0.4-0.2-0.8-0.3-1.2-0.3c-0.7,0-1.3,0.3-1.8,0.8c0,0,0,0-0.1,0.1
				c-0.5-0.5-1.1-0.8-1.9-0.8c-0.4,0-0.8,0.1-1.2,0.3l0-5c0-1.4-1.1-2.6-2.6-2.6c-1.4,0-2.6,1.1-2.6,2.6l0,13c0,4.5,3.7,8.2,8.2,8.2
				c4.4,0,8.1-3.6,8.2-8h0l0-13.2C32.1,16.2,31,15,29.5,15z M29.5,16.4c0.6,0,1.2,0.5,1.2,1.2l0,9.7c-0.8-0.7-1.7-1-2.3-1.1l0-1.4h0
				c0,0,0,0,0,0l0-7.2C28.4,16.9,28.9,16.4,29.5,16.4z M25,24c0.2-0.2,0.5-0.3,0.8-0.3c0.7,0,1.2,0.5,1.2,1.2l0,1.3l-2.4,0l0-1.3
				c0,0,0,0,0,0C24.6,24.5,24.7,24.2,25,24z M22,23.6c0.6,0,1.2,0.5,1.2,1.2c0,0,0,0,0,0l0,1.3l-2.4,0l0-1.3
				C20.9,24.2,21.4,23.6,22,23.6z M23.9,37.4c-3.8,0-6.8-3-6.8-6.8l0-13c0-0.6,0.5-1.2,1.2-1.2c0.6,0,1.2,0.5,1.2,1.2l0,4.8
				c0,0,0,0,0,0l0,1.6l0,3.6h0c0,1.3,1,3.8,4.2,3.8l0.5,0c-0.6,0.7-0.9,1.8-0.9,3c0,0.4,0.3,0.7,0.7,0.7c0.4,0,0.7-0.3,0.7-0.7
				c0-1.1,0.3-1.9,0.8-2.4c0.5-0.5,1.2-0.6,1.6-0.6l0.4,0c0.4,0,0.7-0.3,0.7-0.7c0-0.4-0.3-0.7-0.6-0.7c0,0-0.2,0-0.5,0l-3.4,0
				c-2.5,0-2.7-2-2.8-2.4l6.7,0c0,0,3.2-0.1,3.2,3.1C30.7,34.3,27.7,37.4,23.9,37.4z"/>
		</g>
	</g>
</g>
</svg>
