<?xml version="1.0" encoding="utf-8"?>
<!-- Generator: Adobe Illustrator 17.0.0, SVG Export Plug-In . SVG Version: 6.00 Build 0)  -->
<!DOCTYPE svg PUBLIC "-//W3C//DTD SVG 1.1//EN" "http://www.w3.org/Graphics/SVG/1.1/DTD/svg11.dtd">
<svg version="1.1" id="Layer_1" xmlns="http://www.w3.org/2000/svg" xmlns:xlink="http://www.w3.org/1999/xlink" x="0px" y="0px"
	 width="48px" height="48px" viewBox="0 0 48 48" enable-background="new 0 0 48 48" xml:space="preserve">
<g>
	<g>
		<g>
			<path fill="#6C808D" d="M39.586,5.816c1.432,0,2.598,1.165,2.598,2.598v31.172c0,1.432-1.165,2.598-2.598,2.598H8.414
				c-1.432,0-2.598-1.165-2.598-2.598V8.414c0-1.432,1.165-2.598,2.598-2.598H39.586 M39.586,4.517H8.414
				c-2.152,0-3.896,1.745-3.896,3.896v31.172c0,2.152,1.745,3.896,3.896,3.896h31.172c2.152,0,3.896-1.745,3.896-3.896V8.414
				C43.482,6.262,41.738,4.517,39.586,4.517L39.586,4.517z"/>
		</g>
	</g>
	<rect x="29.845" y="4.517" fill="#6C808D" width="1.299" height="38.965"/>
</g>
</svg>
