<?xml version="1.0" encoding="utf-8"?>
<!-- Generator: Adobe Illustrator 19.2.1, SVG Export Plug-In . SVG Version: 6.00 Build 0)  -->
<svg version="1.1" id="Layer_1" xmlns="http://www.w3.org/2000/svg" xmlns:xlink="http://www.w3.org/1999/xlink" x="0px" y="0px"
	 viewBox="0 0 48 48" style="enable-background:new 0 0 48 48;" xml:space="preserve">
<style type="text/css">
	.st0{fill:#F1F2F2;}
	.st1{fill:#5395D6;}
	.st2{fill:#00C8AB;}
</style>
<g>
	<g>
		<g>
			<g>
				<g>
					<g>
						<path class="st0" d="M20.4,4.5c1.4,0,2.6,1.1,2.6,2.6l0,13.2c0,1.4-1.1,2.6-2.6,2.6l-13.7,0c-1.4,0-2.6-1.1-2.6-2.6l0-13.2
							c0-1.4,1.1-2.6,2.6-2.6L20.4,4.5z"/>
					</g>
				</g>
			</g>
			<g>
				<g>
					<path class="st1" d="M20.6,6.6H6.5v7c5.6,0.3,10.6,2.2,14.1,4.9V6.6z"/>
					<path class="st2" d="M20.6,20.7v-2.2C17,15.8,12.1,14,6.5,13.7v7.1H20.6z"/>
				</g>
				<circle class="st0" cx="16.5" cy="10.3" r="1.9"/>
			</g>
		</g>
		<g>
			<g>
				<g>
					<g>
						<path class="st0" d="M20.4,25.1c1.4,0,2.6,1.1,2.6,2.6l0,13.2c0,1.4-1.1,2.6-2.6,2.6l-13.7,0c-1.4,0-2.6-1.1-2.6-2.6l0-13.2
							c0-1.4,1.1-2.6,2.6-2.6L20.4,25.1z"/>
					</g>
				</g>
			</g>
			<g>
				<g>
					<path class="st1" d="M20.6,27.3H6.5v7c5.6,0.3,10.6,2.2,14.1,4.9V27.3z"/>
					<path class="st2" d="M20.6,41.4v-2.2c-3.5-2.7-8.5-4.5-14.1-4.9v7.1H20.6z"/>
				</g>
				<circle class="st0" cx="16.5" cy="30.9" r="1.9"/>
			</g>
		</g>
	</g>
	<g>
		<g>
			<g>
				<g>
					<g>
						<path class="st0" d="M41.5,4.5c1.4,0,2.6,1.1,2.6,2.6l0,13.2c0,1.4-1.1,2.6-2.6,2.6l-13.7,0c-1.4,0-2.6-1.1-2.6-2.6l0-13.2
							c0-1.4,1.1-2.6,2.6-2.6L41.5,4.5z"/>
					</g>
				</g>
			</g>
			<g>
				<g>
					<path class="st1" d="M41.7,6.6H27.6v7c5.6,0.3,10.6,2.2,14.1,4.9V6.6z"/>
					<path class="st2" d="M41.7,20.7v-2.2c-3.5-2.7-8.5-4.5-14.1-4.9v7.1H41.7z"/>
				</g>
				<circle class="st0" cx="37.6" cy="10.3" r="1.9"/>
			</g>
		</g>
		<g>
			<g>
				<g>
					<g>
						<path class="st0" d="M41.5,25.1c1.4,0,2.6,1.1,2.6,2.6l0,13.2c0,1.4-1.1,2.6-2.6,2.6l-13.7,0c-1.4,0-2.6-1.1-2.6-2.6l0-13.2
							c0-1.4,1.1-2.6,2.6-2.6L41.5,25.1z"/>
					</g>
				</g>
			</g>
			<g>
				<g>
					<path class="st1" d="M41.7,27.3H27.6v7c5.6,0.3,10.6,2.2,14.1,4.9V27.3z"/>
					<path class="st2" d="M41.7,41.4v-2.2c-3.5-2.7-8.5-4.5-14.1-4.9v7.1H41.7z"/>
				</g>
				<circle class="st0" cx="37.6" cy="30.9" r="1.9"/>
			</g>
		</g>
	</g>
</g>
</svg>
