<?xml version="1.0" encoding="utf-8"?>
<!-- Generator: Adobe Illustrator 17.0.0, SVG Export Plug-In . SVG Version: 6.00 Build 0)  -->
<!DOCTYPE svg PUBLIC "-//W3C//DTD SVG 1.1//EN" "http://www.w3.org/Graphics/SVG/1.1/DTD/svg11.dtd">
<svg version="1.1" id="Layer_1" xmlns="http://www.w3.org/2000/svg" xmlns:xlink="http://www.w3.org/1999/xlink" x="0px" y="0px"
	 width="48px" height="48px" viewBox="0 0 48 48" enable-background="new 0 0 48 48" xml:space="preserve">
<g>
	<g>
		<g>
			<path fill="#F1F2F2" d="M4.518,41.135c0,1.583,1.283,2.867,2.867,2.867h33.23c1.583,0,2.867-1.283,2.867-2.867v-29.35H4.519
				v23.421L4.518,41.135z"/>
			<path fill="#6C808D" d="M40.614,4.031H7.385c-1.584,0-2.867,1.284-2.867,2.867v4.887h38.963V6.898
				C43.481,5.315,42.198,4.031,40.614,4.031z"/>
		</g>
		<circle fill="#ED7461" cx="8.292" cy="7.908" r="1.044"/>
		<circle fill="#FFAC00" cx="11.096" cy="7.908" r="1.044"/>
		<circle fill="#00C8AB" cx="13.9" cy="7.908" r="1.044"/>
	</g>
	<g>
		<g>
			<g>
				<g>
					<path fill="#6C808D" d="M21.277,34.064c-0.082-0.015-0.164-0.039-0.244-0.074c-0.542-0.237-0.79-0.868-0.553-1.411
						l5.337-12.159c0.237-0.542,0.867-0.79,1.411-0.553c0.542,0.237,0.79,0.868,0.553,1.411l-5.337,12.159
						C22.241,33.9,21.752,34.147,21.277,34.064z"/>
				</g>
			</g>
			<g>
				<g>
					<g>
						<path fill="#6C808D" d="M17.182,34.08c-0.281,0-0.562-0.11-0.773-0.329l-5.611-5.84c-0.387-0.403-0.399-1.035-0.028-1.453
							l5.611-6.319c0.393-0.442,1.069-0.483,1.512-0.09c0.442,0.393,0.483,1.069,0.09,1.512l-4.955,5.579l4.926,5.127
							c0.41,0.427,0.396,1.104-0.03,1.514C17.715,33.981,17.448,34.08,17.182,34.08z"/>
					</g>
				</g>
				<g>
					<g>
						<path fill="#6C808D" d="M30.818,34.08c-0.253,0-0.506-0.089-0.711-0.27c-0.442-0.393-0.483-1.069-0.09-1.512l4.955-5.579
							l-4.926-5.127c-0.41-0.427-0.396-1.104,0.03-1.514s1.104-0.395,1.514,0.03l5.611,5.84c0.387,0.403,0.399,1.035,0.028,1.453
							l-5.611,6.319C31.408,33.958,31.114,34.08,30.818,34.08z"/>
					</g>
				</g>
			</g>
		</g>
	</g>
</g>
</svg>
