<?xml version="1.0" encoding="utf-8"?>
<!-- Generator: Adobe Illustrator 17.0.0, SVG Export Plug-In . SVG Version: 6.00 Build 0)  -->
<!DOCTYPE svg PUBLIC "-//W3C//DTD SVG 1.1//EN" "http://www.w3.org/Graphics/SVG/1.1/DTD/svg11.dtd">
<svg version="1.1" id="Layer_1" xmlns="http://www.w3.org/2000/svg" xmlns:xlink="http://www.w3.org/1999/xlink" x="0px" y="0px"
	 width="48px" height="48px" viewBox="0 0 48 48" enable-background="new 0 0 48 48" xml:space="preserve">
<g>
	<g>
		<ellipse fill="#5395D6" cx="25.857" cy="8.072" rx="3.124" ry="3.499"/>
		<path fill="#5395D6" d="M22.733,8.072c0,0-0.348,4.508-4.349,3.646c2.162,4.759,10.093,3.873,10.572-3.206
			C26.557,7.108,22.733,8.072,22.733,8.072z"/>
		<path fill="#5395D6" d="M23.683,7.75c0,0-3.294,0.062-4.204-2.679c-1.492,2.672-0.291,6.228,2.466,6.432
			C24.877,11.719,23.683,7.75,23.683,7.75z"/>
		<path fill="#5395D6" d="M28.478,6.268c0,0,0.926-0.052,1.228-0.339c-0.28,0.8-0.747,1.067-0.747,1.067s0.66,0.103,1.029-0.157
			c-0.426,1.092-1.432,1.092-1.432,1.092L28.478,6.268z"/>
	</g>
	<g>
		<g>
			<path fill="#F1F2F2" d="M19.043,43.709c0,0.219,0.177,0.397,0.397,0.397l9.495,0c0.218,0,0.395-0.178,0.395-0.397l0-7.224
				l-10.287,0L19.043,43.709z"/>
			<path fill="#ED7461" d="M28.934,33.819l-9.495,0c-0.22,0-0.397,0.178-0.397,0.396l0,2.272l10.287,0l0-2.272
				C29.329,33.996,29.152,33.819,28.934,33.819z"/>
		</g>
		<g>
			<g>
				<path fill="#BCBEC0" d="M23.677,37.66c-0.142-0.142-0.337-0.231-0.552-0.231c-0.214,0-0.409,0.089-0.551,0.231h-0.001
					c-0.142,0.143-0.232,0.338-0.232,0.554c0,0.214,0.09,0.41,0.23,0.552h0.003c0.141,0.143,0.337,0.229,0.551,0.229
					c0.216,0,0.412-0.086,0.555-0.229c0.142-0.142,0.228-0.338,0.228-0.552c0-0.215-0.087-0.411-0.228-0.554L23.677,37.66z"/>
				<path fill="#BCBEC0" d="M23.677,39.745c-0.142-0.143-0.337-0.231-0.552-0.231c-0.214,0-0.409,0.087-0.551,0.231h-0.001
					c-0.142,0.142-0.232,0.337-0.232,0.552c0,0.214,0.09,0.411,0.232,0.551l0.001,0.001c0.142,0.143,0.337,0.23,0.551,0.23
					c0.215,0,0.41-0.086,0.552-0.23l0.002-0.001c0.141-0.141,0.228-0.337,0.228-0.551c0-0.215-0.087-0.41-0.228-0.552H23.677z"/>
				<path fill="#BCBEC0" d="M26.817,38.767c0.142,0.143,0.338,0.229,0.552,0.229c0.218,0,0.413-0.086,0.555-0.229
					c0.141-0.142,0.229-0.338,0.229-0.552c0-0.215-0.089-0.411-0.229-0.554h-0.001c-0.142-0.142-0.339-0.231-0.554-0.231
					c-0.213,0-0.41,0.089-0.551,0.231h-0.001c-0.141,0.143-0.231,0.338-0.231,0.554c0,0.214,0.09,0.41,0.229,0.552H26.817z"/>
				<path fill="#BCBEC0" d="M25.799,37.66c-0.142-0.142-0.338-0.231-0.551-0.231c-0.214,0-0.409,0.089-0.551,0.231h-0.002
					c-0.141,0.143-0.229,0.338-0.229,0.554c0,0.214,0.089,0.41,0.229,0.552h0.002c0.141,0.143,0.336,0.229,0.551,0.229
					c0.217,0,0.412-0.086,0.554-0.229c0.141-0.142,0.23-0.338,0.23-0.552c0-0.215-0.089-0.411-0.23-0.554H25.799z"/>
				<path fill="#BCBEC0" d="M23.677,41.828c-0.142-0.143-0.337-0.231-0.552-0.231c-0.214,0-0.409,0.088-0.551,0.231h-0.001
					c-0.142,0.142-0.232,0.337-0.232,0.552c0,0.214,0.09,0.412,0.232,0.554h0.001c0.142,0.142,0.337,0.228,0.551,0.228
					c0.215,0,0.41-0.086,0.552-0.228h0.002c0.141-0.142,0.228-0.338,0.228-0.554c0-0.215-0.087-0.411-0.228-0.552H23.677z"/>
				<path fill="#BCBEC0" d="M25.799,41.828c-0.142-0.143-0.338-0.231-0.551-0.231c-0.214,0-0.409,0.088-0.551,0.231h-0.002
					c-0.141,0.142-0.229,0.337-0.229,0.552c0,0.214,0.089,0.412,0.229,0.554h0.002c0.142,0.142,0.337,0.228,0.551,0.228
					c0.213,0,0.409-0.086,0.551-0.228h0.002c0.141-0.142,0.23-0.338,0.23-0.554c0-0.215-0.089-0.411-0.23-0.552H25.799z"/>
				<path fill="#BCBEC0" d="M21.553,39.745c-0.14-0.143-0.339-0.231-0.551-0.231c-0.215,0-0.41,0.087-0.552,0.231h-0.001
					c-0.141,0.142-0.231,0.337-0.231,0.552c0,0.214,0.09,0.411,0.231,0.551l0.001,0.001c0.142,0.143,0.337,0.23,0.552,0.23
					c0.212,0,0.412-0.086,0.551-0.23l0.002-0.001c0.142-0.141,0.228-0.337,0.228-0.551c0-0.215-0.086-0.41-0.228-0.552H21.553z"/>
				<path fill="#BCBEC0" d="M21.553,41.828c-0.14-0.143-0.339-0.231-0.551-0.231c-0.215,0-0.41,0.088-0.552,0.231h-0.001
					c-0.141,0.142-0.231,0.337-0.231,0.552c0,0.214,0.09,0.412,0.231,0.554h0.001c0.142,0.142,0.337,0.228,0.552,0.228
					c0.212,0,0.412-0.086,0.551-0.228h0.002c0.142-0.142,0.228-0.338,0.228-0.554c0-0.215-0.086-0.411-0.228-0.552H21.553z"/>
				<path fill="#BCBEC0" d="M25.799,39.745c-0.142-0.143-0.338-0.231-0.551-0.231c-0.214,0-0.409,0.087-0.551,0.231h-0.002
					c-0.141,0.142-0.229,0.337-0.229,0.552c0,0.214,0.089,0.411,0.229,0.551l0.002,0.001c0.142,0.143,0.337,0.23,0.551,0.23
					c0.213,0,0.409-0.086,0.551-0.23l0.002-0.001c0.141-0.141,0.23-0.337,0.23-0.551c0-0.215-0.089-0.41-0.23-0.552H25.799z"/>
				<path fill="#BCBEC0" d="M27.923,39.745c-0.142-0.143-0.339-0.231-0.554-0.231c-0.213,0-0.41,0.087-0.551,0.231h-0.001
					c-0.141,0.142-0.231,0.337-0.231,0.552c0,0.214,0.09,0.411,0.231,0.551l0.001,0.001c0.141,0.143,0.338,0.23,0.551,0.23
					c0.214,0,0.412-0.086,0.554-0.23l0.001-0.001c0.141-0.141,0.229-0.337,0.229-0.551c0-0.215-0.089-0.41-0.229-0.552H27.923z"/>
			</g>
		</g>
		<g>
			<path fill="#F1F2F2" d="M20.715,33.116c-0.228,0-0.414,0.185-0.414,0.414l0,1.209c0,0.228,0.185,0.414,0.414,0.414
				c0.228,0,0.414-0.185,0.414-0.414l0-1.209C21.129,33.301,20.944,33.116,20.715,33.116z"/>
			<path fill="#F1F2F2" d="M23.029,33.116c-0.228,0-0.414,0.185-0.414,0.414l0,1.209c0,0.228,0.185,0.414,0.414,0.414
				c0.228,0,0.414-0.185,0.414-0.414l0-1.209C23.443,33.301,23.257,33.116,23.029,33.116z"/>
			<path fill="#F1F2F2" d="M25.343,33.116c-0.228,0-0.414,0.185-0.414,0.414l0,1.209c0,0.228,0.185,0.414,0.414,0.414
				s0.414-0.185,0.414-0.414l0-1.209C25.756,33.301,25.571,33.116,25.343,33.116z"/>
			<path fill="#F1F2F2" d="M27.656,33.116c-0.228,0-0.414,0.185-0.414,0.414l0,1.209c0,0.228,0.185,0.414,0.414,0.414
				c0.228,0,0.414-0.185,0.414-0.414l0-1.209C28.07,33.301,27.885,33.116,27.656,33.116z"/>
		</g>
	</g>
	<g>
		<path fill="#F5B540" d="M38.091,5.388V4.64c0-0.124-0.047-0.247-0.141-0.341c-0.094-0.094-0.218-0.141-0.341-0.141h-3.079
			c-0.124,0-0.247,0.047-0.341,0.141c-0.094,0.094-0.141,0.218-0.141,0.341v1.98h9.559V5.871c0-0.124-0.047-0.247-0.141-0.341
			c-0.094-0.094-0.218-0.141-0.341-0.141H38.091z"/>
		<path fill="#FFFFFF" d="M43.122,14.138c0,0.124-0.047,0.247-0.141,0.341c-0.094,0.094-0.218,0.141-0.341,0.141h-7.627
			c-0.124,0-0.247-0.047-0.341-0.141c-0.094-0.094-0.141-0.218-0.141-0.341V6.62c0-0.124,0.047-0.247,0.141-0.341
			c0.094-0.094,0.218-0.141,0.341-0.141h7.627c0.124,0,0.247,0.047,0.341,0.141c0.094,0.094,0.141,0.218,0.141,0.341V14.138z"/>
		<path fill="#FECE66" d="M44.088,14.621c0,0.124-0.047,0.247-0.141,0.341c-0.094,0.094-0.218,0.141-0.341,0.141h-9.559
			c-0.124,0-0.247-0.047-0.341-0.141c-0.094-0.094-0.141-0.218-0.141-0.341V7.103c0-0.124,0.047-0.247,0.141-0.341
			c0.094-0.094,0.218-0.141,0.341-0.141h9.559c0.124,0,0.247,0.047,0.341,0.141c0.094,0.094,0.141,0.218,0.141,0.341V14.621z"/>
	</g>
	<g>
		<circle fill="#00C8AB" cx="24.186" cy="24.089" r="5.105"/>
		<polygon fill="#FFFFFF" points="23.334,26.474 21.291,24.43 21.972,23.749 23.334,25.112 26.4,22.046 27.081,22.727 		"/>
	</g>
	<g>
		<circle fill="#FAD97F" cx="9.211" cy="38.614" r="5.17"/>
		<path fill="#F5B947" d="M13.345,38.614c0,2.284-1.849,4.134-4.134,4.134c-2.284,0-4.134-1.85-4.134-4.134
			c0-2.287,1.85-4.136,4.134-4.136C11.496,34.478,13.345,36.328,13.345,38.614z"/>
		<g>
			<g>
				<path fill="#FAD97F" d="M9.648,38.956H8.776c-0.363,0-0.703-0.142-0.957-0.4c-0.257-0.251-0.398-0.592-0.398-0.956
					c0-0.363,0.141-0.702,0.398-0.961c0.252-0.251,0.591-0.392,0.957-0.392h1.883v0.682H8.776c-0.181,0-0.349,0.069-0.472,0.193
					C8.175,37.25,8.107,37.418,8.107,37.6c0,0.179,0.068,0.349,0.193,0.472c0.131,0.13,0.298,0.201,0.476,0.201h0.871V38.956z"/>
				<path fill="#FAD97F" d="M9.648,40.979H7.763v-0.683h1.885c0.176,0,0.344-0.069,0.473-0.195c0.125-0.124,0.197-0.293,0.197-0.475
					c0-0.182-0.07-0.348-0.195-0.474c-0.13-0.126-0.298-0.196-0.475-0.196H8.776v-0.683h0.871c0.36,0,0.698,0.141,0.956,0.398
					C10.858,38.919,11,39.262,11,39.626c0,0.363-0.141,0.706-0.398,0.958C10.344,40.84,10.005,40.979,9.648,40.979z"/>
				<rect x="8.87" y="36.008" fill="#FAD97F" width="0.681" height="5.208"/>
			</g>
		</g>
	</g>
	<g>
		<path fill="#F1F2F2" d="M43.626,37.282c-0.162-0.163-0.375-0.244-0.587-0.244h-3.925V38.7h3.925c0.212,0,0.426-0.082,0.587-0.244
			c0.162-0.162,0.243-0.375,0.243-0.587C43.869,37.656,43.788,37.444,43.626,37.282z"/>
		<path fill="#F1F2F2" d="M44.086,38.944c-0.162-0.163-0.375-0.244-0.588-0.244h-4.214v1.662h4.214c0.213,0,0.426-0.081,0.588-0.243
			c0.162-0.162,0.243-0.374,0.243-0.587C44.329,39.318,44.248,39.106,44.086,38.944z"/>
		<path fill="#F1F2F2" d="M43.625,40.605c-0.163-0.162-0.375-0.243-0.588-0.243h-4.514v1.662h4.514c0.214,0,0.426-0.081,0.588-0.244
			c0.162-0.162,0.244-0.374,0.244-0.587C43.869,40.98,43.788,40.768,43.625,40.605z"/>
		<path fill="#F1F2F2" d="M43.165,42.267c-0.162-0.163-0.375-0.244-0.588-0.244h-4.809v1.662h4.809c0.213,0,0.425-0.081,0.588-0.243
			c0.162-0.162,0.243-0.375,0.243-0.588C43.408,42.642,43.326,42.429,43.165,42.267z"/>
		<path fill="#F1F2F2" d="M40.715,33.548c-0.162-0.164-0.375-0.244-0.588-0.244c-0.211,0-0.425,0.081-0.587,0.244
			c-0.163,0.162-0.244,0.374-0.244,0.587V34.05c0,0.402-0.076,0.811-0.242,1.205c-0.165,0.394-0.395,0.729-0.681,1.011
			c-0.241,0.238-0.532,0.434-0.864,0.571c-0.333,0.137-0.677,0.201-1.016,0.201h-0.405v6.647h4.038v-5.928l0.379-0.936
			c0.146-0.364,0.261-0.746,0.338-1.146c0.077-0.398,0.114-0.797,0.114-1.189v-0.351C40.959,33.922,40.878,33.71,40.715,33.548z"/>
		<path fill="#5395D6" d="M33.322,43.432c0,0.125,0.048,0.249,0.143,0.344c0.095,0.095,0.22,0.142,0.344,0.142h1.976
			c0.124,0,0.249-0.047,0.344-0.142c0.095-0.095,0.143-0.219,0.143-0.344v-6.141c0-0.125-0.048-0.249-0.143-0.344
			c-0.095-0.095-0.22-0.143-0.344-0.143h-1.976c-0.124,0-0.249,0.048-0.344,0.143c-0.095,0.095-0.143,0.219-0.143,0.344V43.432z"/>
		<circle fill="#FFFFFF" cx="34.936" cy="42.664" r="0.386"/>
	</g>
	<g>
		<path fill="#E6E7E8" d="M8.09,25.586l0-2.996c0.703-0.307,1.096-1.009,1.096-1.826c0-0.817-0.393-1.518-1.096-1.826l0,1.826H6.437
			l0-1.826c-0.703,0.308-1.096,1.009-1.096,1.826c0,0.817,0.393,1.518,1.096,1.826l0,2.996c-0.703,0.308-1.096,1.009-1.096,1.826
			c0,0.817,0.393,1.518,1.096,1.826l0-1.826l1.653,0l0,1.826c0.703-0.307,1.096-1.009,1.096-1.826
			C9.186,26.594,8.793,25.893,8.09,25.586z"/>
		<rect x="11.265" y="20.502" fill="#E6E7E8" width="0.908" height="3.316"/>
		<path fill="#5395D6" d="M13.081,25.084l-0.573-0.574h0.573v-0.823h-2.724v0.823h0.573l-0.573,0.574v2.942h0.001
			c0.011,0.74,0.616,1.215,1.361,1.215s1.35-0.475,1.361-1.215h0.001L13.081,25.084z"/>
		<polygon fill="#E6E7E8" points="12.161,18.938 11.278,18.938 10.931,20.578 12.507,20.578 		"/>
		<polygon fill="#BCBEC0" points="12.161,21.336 11.278,21.336 10.931,20.578 12.507,20.578 		"/>
		<path fill="#83BEFF" d="M11.492,25.36L11.492,25.36c0-0.125-0.102-0.227-0.227-0.227c-0.125,0-0.227,0.102-0.227,0.227l0,0
			l0,2.845c0,0.125,0.102,0.227,0.227,0.227c0.125,0,0.227-0.102,0.227-0.227L11.492,25.36L11.492,25.36z"/>
		<path fill="#BCBEC0" d="M7.49,22.812L7.49,22.812c0-0.125-0.102-0.227-0.227-0.227c-0.125,0-0.227,0.102-0.227,0.227l0,0l0,2.55
			c0,0.125,0.102,0.227,0.227,0.227c0.125,0,0.227-0.102,0.227-0.227L7.49,22.812L7.49,22.812z"/>
		<path fill="#83BEFF" d="M12.4,25.36L12.4,25.36c0-0.125-0.102-0.227-0.227-0.227c-0.125,0-0.227,0.102-0.227,0.227l0,0l0,2.845
			c0,0.125,0.102,0.227,0.227,0.227c0.125,0,0.227-0.102,0.227-0.227L12.4,25.36L12.4,25.36z"/>
	</g>
	<g>
		<path fill="none" d="M7.16,9.631c0,1.133,0.918,2.051,2.051,2.051c1.133,0,2.051-0.918,2.051-2.051
			c0-0.005-0.001-0.009-0.001-0.014H7.161C7.161,9.621,7.16,9.626,7.16,9.631z"/>
		<path fill="#6C808D" d="M13.188,11.368c0.011-0.025,0.022-0.051,0.032-0.076c0.245-0.591,0.819-0.947,1.422-0.943
			c0.031-0.235,0.048-0.474,0.048-0.718c0-0.005,0-0.009,0-0.014c-0.001-0.203-0.013-0.403-0.035-0.6
			c-0.603-0.007-1.169-0.372-1.403-0.968c-0.011-0.027-0.021-0.054-0.033-0.081c-0.246-0.591-0.091-1.248,0.339-1.671
			c-0.271-0.352-0.583-0.671-0.93-0.948c-0.432,0.421-1.092,0.563-1.678,0.306c-0.026-0.011-0.052-0.023-0.079-0.033l-0.022-0.009
			c-0.589-0.244-0.943-0.815-0.941-1.415C9.68,4.168,9.448,4.152,9.211,4.152c-0.213,0-0.423,0.013-0.63,0.037
			C8.58,4.387,8.54,4.581,8.465,4.76C8.313,5.128,8.018,5.436,7.618,5.594C7.59,5.605,7.563,5.616,7.536,5.628
			c-0.59,0.247-1.247,0.094-1.671-0.334C5.513,5.565,5.196,5.879,4.92,6.226c0.416,0.424,0.562,1.07,0.321,1.651
			c-0.003,0.008-0.006,0.015-0.01,0.023L5.202,7.97L5.195,7.987C4.951,8.576,4.38,8.93,3.779,8.927
			C3.75,9.153,3.733,9.383,3.733,9.617c0,0.005,0,0.009,0,0.014c0,0.211,0.013,0.42,0.036,0.625c0.603,0.006,1.171,0.37,1.405,0.966
			c0.011,0.027,0.022,0.054,0.033,0.081c0.162,0.39,0.151,0.808,0.001,1.17c-0.077,0.186-0.192,0.356-0.337,0.501
			c0.271,0.352,0.584,0.67,0.932,0.946c0.431-0.422,1.09-0.565,1.676-0.309c0.024,0.01,0.048,0.02,0.072,0.03
			c0.591,0.245,0.948,0.819,0.945,1.422c0.234,0.031,0.473,0.048,0.715,0.048c0.21,0,0.416-0.013,0.619-0.036
			c0.006-0.603,0.372-1.171,0.968-1.404c0.026-0.01,0.053-0.021,0.079-0.032c0.591-0.246,1.248-0.092,1.671,0.337
			c0.352-0.271,0.67-0.584,0.947-0.931c-0.415-0.424-0.559-1.07-0.319-1.649C13.18,11.386,13.184,11.377,13.188,11.368z
			 M9.211,13.049c-1.888,0-3.419-1.531-3.419-3.419c0-0.005,0-0.009,0-0.014C5.8,7.735,7.328,6.212,9.211,6.212
			c1.883,0,3.411,1.523,3.418,3.405c0,0.005,0,0.009,0,0.014C12.63,11.519,11.099,13.049,9.211,13.049z"/>
		<path fill="#A7A9AC" d="M12.629,9.617c-0.008-1.882-1.535-3.405-3.418-3.405c-1.883,0-3.411,1.523-3.418,3.405
			c0,0.005,0,0.009,0,0.014c0,1.888,1.531,3.419,3.419,3.419c1.888,0,3.419-1.531,3.419-3.419
			C12.63,9.626,12.629,9.621,12.629,9.617z M9.211,11.682c-1.133,0-2.051-0.918-2.051-2.051c0-0.005,0.001-0.009,0.001-0.014
			c0.008-1.126,0.922-2.037,2.05-2.037c1.128,0,2.043,0.911,2.05,2.037c0,0.005,0.001,0.009,0.001,0.014
			C11.262,10.763,10.344,11.682,9.211,11.682z"/>
	</g>
	<g>
		<polygon fill="none" points="36.895,20.96 36.895,20.96 36.757,20.822 		"/>
		<polygon fill="#EA5B3A" points="40.752,20.965 40.752,20.965 40.006,21.711 		"/>
		<g>
			<path fill="#ED7461" d="M42.685,21.428l-0.737,0.737l-0.744,0.744c0.177,0.356,0.279,0.756,0.279,1.18
				c0,0.424-0.102,0.824-0.279,1.18l0.739,0.739l0.742,0.742c0.522-0.756,0.83-1.672,0.83-2.661
				C43.515,23.101,43.208,22.185,42.685,21.428z"/>
			<path fill="#ED7461" d="M36.169,24.089c0-0.424,0.102-0.824,0.279-1.18l-0.751-0.751l-0.73-0.73
				c-0.522,0.756-0.83,1.672-0.83,2.661s0.308,1.905,0.83,2.661l0.735-0.735l0.746-0.746C36.271,24.913,36.169,24.514,36.169,24.089
				z"/>
			<path fill="#ED7461" d="M36.895,20.96l0.751,0.751c0.356-0.177,0.756-0.279,1.18-0.279c0.424,0,0.824,0.102,1.18,0.279
				l0.746-0.746l0.735-0.735c-0.756-0.522-1.672-0.83-2.661-0.83c-0.989,0-1.905,0.308-2.661,0.83l0.592,0.592L36.895,20.96z"/>
			<path fill="#ED7461" d="M40.006,26.468c-0.356,0.177-0.756,0.279-1.18,0.279c-0.424,0-0.824-0.102-1.18-0.279l-0.744,0.744
				l-0.737,0.737c0.756,0.522,1.672,0.83,2.661,0.83s1.905-0.308,2.661-0.83l-0.742-0.742L40.006,26.468z"/>
		</g>
		<polygon fill="#D5DBDF" points="36.757,20.822 36.165,20.23 36.165,20.23 		"/>
	</g>
	<g>
		<g>
			<path fill="#F1F2F2" d="M36.448,25.269l-0.746,0.746l-0.735,0.735c0.324,0.468,0.73,0.875,1.198,1.198l0.737-0.737l0.744-0.744
				C37.127,26.21,36.705,25.788,36.448,25.269z"/>
			<path fill="#F1F2F2" d="M41.204,22.909l0.744-0.744l0.737-0.737c-0.324-0.468-0.73-0.875-1.198-1.198l-0.735,0.735l-0.746,0.746
				C40.525,21.969,40.946,22.391,41.204,22.909z"/>
			<path fill="#F1F2F2" d="M36.757,20.823l-0.592-0.592v0c-0.468,0.324-0.875,0.73-1.198,1.198l0.73,0.73l0.751,0.751
				c0.258-0.519,0.679-0.94,1.198-1.198l-0.751-0.751L36.757,20.823z"/>
			<path fill="#F1F2F2" d="M41.204,25.269c-0.258,0.519-0.679,0.94-1.198,1.198l0.739,0.739l0.742,0.742
				c0.468-0.324,0.875-0.73,1.198-1.198l-0.742-0.742L41.204,25.269z"/>
		</g>
		<path fill="#BCBEC0" d="M36.001,28.31c-0.77,0-1.396-0.626-1.396-1.396c0-0.198,0.042-0.387,0.117-0.558
			c-0.092-0.165-0.174-0.336-0.245-0.512c-0.214,0.303-0.34,0.672-0.34,1.07c0,1.028,0.836,1.865,1.865,1.865
			c0.398,0,0.767-0.127,1.07-0.34c-0.176-0.071-0.347-0.154-0.512-0.245C36.388,28.268,36.2,28.31,36.001,28.31z"/>
		<path fill="#BCBEC0" d="M41.65,19.868c0.77,0,1.396,0.626,1.396,1.396c0,0.198-0.042,0.387-0.117,0.558
			c0.091,0.165,0.174,0.336,0.245,0.512c0.214-0.303,0.34-0.672,0.34-1.07c0-1.028-0.837-1.865-1.865-1.865
			c-0.398,0-0.767,0.127-1.07,0.34c0.176,0.071,0.347,0.154,0.512,0.245C41.263,19.911,41.452,19.868,41.65,19.868z"/>
		<path fill="#BCBEC0" d="M34.722,21.823c-0.075-0.171-0.117-0.36-0.117-0.558c0-0.77,0.626-1.396,1.396-1.396
			c0.198,0,0.387,0.042,0.558,0.117c0.165-0.092,0.336-0.174,0.512-0.245c-0.303-0.214-0.672-0.34-1.071-0.34
			c-1.028,0-1.865,0.836-1.865,1.865c0,0.398,0.127,0.767,0.34,1.07C34.548,22.159,34.631,21.988,34.722,21.823z"/>
		<path fill="#BCBEC0" d="M42.929,26.356c0.075,0.171,0.117,0.36,0.117,0.558c0,0.77-0.626,1.396-1.396,1.396
			c-0.198,0-0.387-0.042-0.558-0.117c-0.165,0.092-0.336,0.174-0.512,0.245c0.303,0.214,0.672,0.34,1.07,0.34
			c1.028,0,1.865-0.836,1.865-1.865c0-0.398-0.127-0.767-0.34-1.07C43.103,26.02,43.021,26.191,42.929,26.356z"/>
	</g>
</g>
</svg>
