<?xml version="1.0" encoding="utf-8"?>
<!-- Generator: Adobe Illustrator 19.2.1, SVG Export Plug-In . SVG Version: 6.00 Build 0)  -->
<svg version="1.1" id="Layer_1" xmlns="http://www.w3.org/2000/svg" xmlns:xlink="http://www.w3.org/1999/xlink" x="0px" y="0px"
	 viewBox="0 0 48 48" style="enable-background:new 0 0 48 48;" xml:space="preserve">
<style type="text/css">
	.st0{fill:#ED7461;}
	.st1{fill:#FFFFFF;}
	.st2{fill:#BCBEC0;}
</style>
<g>
	<g>
		<g>
			<circle class="st0" cx="10.9" cy="23.9" r="6.2"/>
			<g>
				<g>
					<path class="st1" d="M10.9,22.3c-0.6,0-1.1-0.5-1.1-1.1c0-0.6,0.5-1.1,1.1-1.1c0.6,0,1.1,0.5,1.1,1.1
						C12.1,21.8,11.6,22.3,10.9,22.3z M10.9,20.9c-0.2,0-0.4,0.2-0.4,0.4c0,0.2,0.2,0.4,0.4,0.4s0.4-0.2,0.4-0.4
						C11.3,21,11.1,20.9,10.9,20.9z"/>
				</g>
				<g>
					<rect x="10.6" y="21.9" class="st1" width="0.8" height="5.4"/>
				</g>
				<g>
					<rect x="8.9" y="22.9" class="st1" width="4.1" height="0.8"/>
				</g>
				<g>
					<path class="st1" d="M10.9,27.7c-1.9,0-3.1-1-3.1-2.6v-0.6l0.8,0v0.6c0,1.7,1.8,1.8,2.3,1.8s2.3-0.1,2.3-1.8l0-0.6l0.8,0l0,0.6
						C14,26.7,12.8,27.7,10.9,27.7z"/>
				</g>
			</g>
		</g>
		<g>
			<rect x="21.5" y="23.4" class="st2" width="21.4" height="0.8"/>
			<rect x="21.5" y="25.1" class="st2" width="21.4" height="0.8"/>
			<rect x="21.5" y="26.7" class="st2" width="21.4" height="0.8"/>
			<rect x="21.5" y="28.3" class="st2" width="21.4" height="0.8"/>
			<g>
				<rect x="21.5" y="18.7" class="st2" width="21.4" height="2.1"/>
			</g>
		</g>
	</g>
</g>
</svg>
