<?xml version="1.0" encoding="utf-8"?>
<!-- Generator: Adobe Illustrator 19.2.1, SVG Export Plug-In . SVG Version: 6.00 Build 0)  -->
<svg version="1.1" id="Layer_1" xmlns="http://www.w3.org/2000/svg" xmlns:xlink="http://www.w3.org/1999/xlink" x="0px" y="0px"
	 viewBox="0 0 48 48" style="enable-background:new 0 0 48 48;" xml:space="preserve">
<style type="text/css">
	.st0{fill:#F1F2F2;}
	.st1{fill:#FFFFFF;}
	.st2{fill:#5395D6;}
	.st3{fill:#00C8AB;}
	.st4{fill:#BCBEC0;}
</style>
<g>
	<path class="st0" d="M42.9,40.5c0,1.4-1.2,2.6-2.6,2.6H7.5c-1.4,0-2.6-1.2-2.6-2.6V7.7c0-1.4,1.2-2.6,2.6-2.6h32.8
		c1.4,0,2.6,1.2,2.6,2.6V40.5z"/>
	<g>
		<g>
			<g>
				<g>
					<g>
						<path class="st1" d="M28,11c0.8,0,1.5,0.7,1.5,1.5l0,7.8c0,0.8-0.7,1.5-1.5,1.5l-8.1,0c-0.8,0-1.5-0.7-1.5-1.5l0-7.8
							c0-0.8,0.7-1.5,1.5-1.5L28,11z"/>
					</g>
				</g>
			</g>
			<g>
				<g>
					<path class="st2" d="M28.1,12.3h-8.4v4.2c3.3,0.2,6.3,1.3,8.4,2.9V12.3z"/>
					<path class="st3" d="M28.1,20.6v-1.3c-2.1-1.6-5-2.7-8.4-2.9v4.2H28.1z"/>
				</g>
				<circle class="st0" cx="25.7" cy="14.4" r="1.1"/>
			</g>
		</g>
		<g>
			<rect x="9.4" y="28.6" class="st4" width="29.1" height="0.6"/>
			<rect x="9.4" y="31.2" class="st4" width="29.1" height="0.6"/>
			<g>
				<rect x="15.5" y="24.2" class="st4" width="16.4" height="1.6"/>
			</g>
			<rect x="9.4" y="33.9" class="st4" width="29.1" height="0.6"/>
			<rect x="9.4" y="36.6" class="st4" width="29.1" height="0.6"/>
		</g>
	</g>
</g>
</svg>
