<?xml version="1.0" encoding="utf-8"?>
<!-- Generator: Adobe Illustrator 19.2.1, SVG Export Plug-In . SVG Version: 6.00 Build 0)  -->
<svg version="1.1" id="Layer_1" xmlns="http://www.w3.org/2000/svg" xmlns:xlink="http://www.w3.org/1999/xlink" x="0px" y="0px"
	 viewBox="0 0 48 48" style="enable-background:new 0 0 48 48;" xml:space="preserve">
<style type="text/css">
	.st0{fill:#3F4A5A;}
</style>
<g>
	<path class="st0" d="M41.1,17.6C41,22,41,26.4,40.9,30.8c-0.1,0.5-0.2,1-0.2,1.5c-0.3,4.3-3,7.6-7.3,8.5c-1.1,0.2-2.2,0.3-3.3,0.4
		c-4.4-0.1-8.8-0.1-13.2-0.2c-0.4-0.1-0.9-0.2-1.3-0.2c-5-0.4-8.7-4-8.8-9c-0.1-5.4,0-10.8,0.2-16.1c0.2-4.9,4-8.6,9-8.7
		c5.4-0.1,10.8,0,16.1,0.2c4.3,0.2,7.5,3,8.5,7.3C40.9,15.5,41,16.6,41.1,17.6z M37.8,24.2c0-2.4,0.1-4.8,0.1-7.3
		c-0.1-4.1-2.3-6.5-6.4-6.7c-4.9-0.2-9.7-0.3-14.6-0.2c-4.1,0-6.5,2.3-6.6,6.5C10,21.4,9.9,26.2,10,31c0,4.2,2.3,6.6,6.6,6.7
		c4.8,0.2,9.7,0.2,14.5,0.2c4,0,6.4-2.4,6.6-6.4C37.8,29.1,37.7,26.7,37.8,24.2z"/>
	<path class="st0" d="M23.7,32.8c-4.9-0.1-8.7-4.1-8.6-9c0.1-4.9,4.1-8.7,9-8.5c4.9,0.1,8.6,4.1,8.5,8.9
		C32.6,29.1,28.6,32.9,23.7,32.8z M23.8,29.7c3.2,0.1,5.7-2.4,5.8-5.6c0.1-3.1-2.4-5.7-5.5-5.8c-3.2-0.1-5.8,2.3-5.8,5.5
		C18.2,27,20.6,29.6,23.8,29.7z"/>
	<path class="st0" d="M33.2,13c1.2,0,2,0.9,2,2c0,1.1-0.9,2.1-2,2.1c-1.1,0-2.1-0.9-2.1-2.1C31.1,13.9,32,13,33.2,13z"/>
</g>
</svg>
