<?xml version="1.0" encoding="utf-8"?>
<!-- Generator: Adobe Illustrator 19.2.1, SVG Export Plug-In . SVG Version: 6.00 Build 0)  -->
<svg version="1.1" id="Layer_1" xmlns="http://www.w3.org/2000/svg" xmlns:xlink="http://www.w3.org/1999/xlink" x="0px" y="0px"
	 viewBox="0 0 48 48" style="enable-background:new 0 0 48 48;" xml:space="preserve">
<style type="text/css">
	.st0{fill:#BCBEC0;}
	.st1{fill:#F1F2F2;}
	.st2{fill:#00B092;}
	.st3{fill:#00C9AB;}
	.st4{fill:#5395D6;}
	.st5{fill:#81BDFF;}
	.st6{fill:#ED7461;}
	.st7{fill:#DF5B4A;}
</style>
<g>
	<polygon class="st0" points="14.4,40.5 4.7,44.7 4.7,16.7 14.4,12.6 	"/>
	<polygon class="st1" points="24.1,44.7 14.4,40.5 14.4,12.6 24.1,16.7 	"/>
	<polygon class="st0" points="33.8,40.5 24.1,44.7 24.1,16.7 33.8,12.6 	"/>
	<polygon class="st1" points="43.5,44.7 33.8,40.5 33.8,12.6 43.5,16.7 	"/>
	<g>
		<polygon class="st2" points="33.8,14.6 31.4,15.7 33.8,16.6 		"/>
		<polygon class="st2" points="24.1,29.4 24.1,42.6 27.8,41 31.4,32.3 		"/>
		<polygon class="st2" points="32.5,32.8 29.5,40.3 33.8,38.4 33.8,33.3 		"/>
		<polygon class="st0" points="31.4,32.3 27.8,41 29.5,40.3 32.5,32.8 		"/>
		<polygon class="st2" points="33.8,32 33.8,29.7 33,31.7 		"/>
		<polygon class="st2" points="31.8,31.2 33.8,26.4 33.8,18 29.8,16.3 24.1,18.8 24.1,28 		"/>
		<polygon class="st0" points="31.8,31.2 33,31.7 33.8,29.7 33.8,26.4 		"/>
		<polygon class="st3" points="37.9,19.7 33.8,29.7 33.8,32 41.4,35.1 41.4,21.1 		"/>
		<polygon class="st3" points="33.8,18 33.8,26.4 36.7,19.2 		"/>
		<polygon class="st1" points="33.8,26.4 33.8,29.7 37.9,19.7 36.7,19.2 		"/>
		<polygon class="st3" points="37.2,18 37.9,16.3 33.8,14.6 33.8,16.6 		"/>
		<polygon class="st3" points="41.4,19.8 41.4,17.7 39.1,16.8 38.4,18.5 		"/>
		<rect x="37.2" y="16.8" transform="matrix(0.3781 -0.9257 0.9257 0.3781 7.5968 46.1366)" class="st1" width="1.9" height="1.2"/>
		<polygon class="st3" points="33.8,38.4 41.4,41.6 41.4,36.4 33.8,33.3 		"/>
		<polygon class="st1" points="37.2,18 33.8,16.6 33.8,18 36.7,19.2 		"/>
		<polygon class="st1" points="37.9,19.7 41.4,21.1 41.4,19.8 38.4,18.5 		"/>
		<rect x="36.9" y="18.2" transform="matrix(0.3781 -0.9258 0.9258 0.3781 5.8999 46.4876)" class="st1" width="1.2" height="1.2"/>
		<g>
			<polygon class="st0" points="31.4,15.7 29.8,16.3 33.8,18 33.8,16.6 			"/>
			<polygon class="st0" points="24.1,28 24.1,29.4 33.8,33.3 33.8,32 			"/>
		</g>
		<polygon class="st1" points="33.8,33.3 41.4,36.4 41.4,35.1 33.8,32 		"/>
		<path class="st2" d="M14.4,25.4l-7.6-3.1v6c2.3,0.4,5,1.3,7.6,3V25.4z"/>
		<polygon class="st2" points="14.4,14.6 6.7,17.7 6.7,20.9 14.4,24.1 		"/>
		<polygon class="st0" points="14.4,24.1 6.7,20.9 6.7,22.3 14.4,25.4 		"/>
		<path class="st2" d="M6.7,33.9v7.7l7.6-3.1v-1.9C12.6,35,10.1,33.8,6.7,33.9z"/>
		<polygon class="st3" points="24.1,28 24.1,18.8 14.4,14.6 14.4,24.1 		"/>
		<path class="st3" d="M14.4,25.4v5.9c3.1,2,6,5.2,7.2,10.3l2.5,1.1V29.4L14.4,25.4z"/>
		<polygon class="st1" points="14.4,24.1 14.4,25.4 24.1,29.4 24.1,28 		"/>
		<path class="st3" d="M14.4,36.6v1.9l2.3,1C16,38.4,15.3,37.4,14.4,36.6z"/>
		<path class="st4" d="M14.4,31.3c-2.6-1.7-5.4-2.5-7.6-3v5.6c3.4-0.1,5.8,1.1,7.6,2.7V31.3z"/>
		<path class="st5" d="M14.4,31.3v5.3c0.9,0.8,1.7,1.8,2.3,2.8l4.9,2.1C20.4,36.5,17.5,33.3,14.4,31.3z"/>
	</g>
	<g>
		<path class="st6" d="M32.7,11.8c0-4.8-3.9-8.6-8.6-8.6h0l0,4.8h0c2.1,0,3.7,1.7,3.7,3.7s-1.7,3.7-3.7,3.7l0,9.5
			C24.1,24.9,32.7,16.6,32.7,11.8z"/>
		<path class="st7" d="M24.1,15.5c-2.1,0-3.7-1.7-3.7-3.7C20.3,9.7,22,8,24.1,8l0-4.8c-4.8,0-8.6,3.9-8.6,8.6s8.6,13.1,8.6,13.1l0,0
			L24.1,15.5L24.1,15.5z"/>
	</g>
</g>
</svg>
