<?xml version="1.0" encoding="utf-8"?>
<!-- Generator: Adobe Illustrator 17.0.0, SVG Export Plug-In . SVG Version: 6.00 Build 0)  -->
<!DOCTYPE svg PUBLIC "-//W3C//DTD SVG 1.1//EN" "http://www.w3.org/Graphics/SVG/1.1/DTD/svg11.dtd">
<svg version="1.1" id="Layer_1" xmlns="http://www.w3.org/2000/svg" xmlns:xlink="http://www.w3.org/1999/xlink" x="0px" y="0px"
	 width="48px" height="48px" viewBox="0 0 48 48" enable-background="new 0 0 48 48" xml:space="preserve">
<g>
	<path fill="#F1F2F2" d="M45.294,36.628c0,1.556-1.274,2.818-2.845,2.818H10.204c-1.571,0-2.845-1.262-2.845-2.818V9.27
		c0-1.556,1.274-2.818,2.845-2.818h32.245c1.571,0,2.845,1.262,2.845,2.818V36.628z"/>
	<g>
		<path fill="#BCBEC0" d="M37.211,40.385H10.204c-1.571,0-2.845-1.262-2.845-2.818v-0.939V12.674l-2.367,0.471
			c-1.541,0.307-2.538,1.792-2.229,3.318l5.442,26.821c0.31,1.526,1.809,2.514,3.35,2.208l30.377-6.046h0L37.211,40.385z"/>
		<path fill="#A7A9AC" d="M7.359,36.628v0.939c0,1.556,1.274,2.818,2.845,2.818h27.007l4.719-0.939H10.204
			C8.633,39.446,7.359,38.184,7.359,36.628z"/>
	</g>
	<g>
		<path fill="#83BEFF" d="M22.945,26.968c3.631-2.951,8.276-4.724,13.339-4.724c1.674,0,3.3,0.199,4.86,0.565V10.621H11.508v15.802
			c1.525-0.348,3.11-0.538,4.742-0.538C18.592,25.885,20.841,26.269,22.945,26.968z"/>
		<path fill="#02AF92" d="M16.775,35.278c1.332-3.26,3.468-6.112,6.17-8.309c-2.104-0.699-4.354-1.084-6.695-1.084
			c-1.631,0-3.217,0.19-4.742,0.538v8.855H16.775z"/>
		<path fill="#00C8AB" d="M36.284,22.245c-5.063,0-9.708,1.772-13.339,4.724c-2.703,2.197-4.839,5.049-6.17,8.309h24.37V22.81
			C39.584,22.444,37.958,22.245,36.284,22.245z"/>
	</g>
	<ellipse fill="#F1F2F2" cx="33.054" cy="16.756" rx="3.23" ry="3.2"/>
</g>
</svg>
