<?xml version="1.0" encoding="utf-8"?>
<!-- Generator: Adobe Illustrator 17.0.0, SVG Export Plug-In . SVG Version: 6.00 Build 0)  -->
<!DOCTYPE svg PUBLIC "-//W3C//DTD SVG 1.1//EN" "http://www.w3.org/Graphics/SVG/1.1/DTD/svg11.dtd">
<svg version="1.1" id="Layer_1" xmlns="http://www.w3.org/2000/svg" xmlns:xlink="http://www.w3.org/1999/xlink" x="0px" y="0px"
	 width="48px" height="48px" viewBox="0 0 48 48" enable-background="new 0 0 48 48" xml:space="preserve">
<g>
	<g>
		<g>
			<path fill="#CE4E45" d="M4.518,41.385c0,1.435,1.163,2.598,2.598,2.598h33.769c0.639,0,1.224-0.232,1.677-0.615L4.518,17.952
				V41.385z"/>
		</g>
	</g>
	<g>
		<g>
			<g>
				<polygon fill="#CE4E45" points="4.518,17.952 24,30.968 43.482,17.952 				"/>
			</g>
			<g>
				<path fill="#CE4E45" d="M42.561,43.367c0.563-0.476,0.921-1.187,0.921-1.982V17.952L24,30.968L42.561,43.367z"/>
			</g>
		</g>
	</g>
	<g>
		<g>
			<path fill="#ED7461" d="M4.518,40.519c0,1.435,1.163,2.598,2.598,2.598h33.769c0.639,0,1.224-0.232,1.677-0.615L4.518,17.086
				V40.519z"/>
		</g>
	</g>
	<g>
		<polygon fill="#CE4E45" points="4.518,17.086 24,30.102 43.482,17.086 		"/>
		<path fill="#DD5C4E" d="M42.561,42.502c0.563-0.476,0.921-1.187,0.921-1.982V17.086L24,30.102L42.561,42.502z"/>
	</g>
	<g>
		<g>
			<path fill="#F1F2F2" d="M39.369,12.901h-8.785V4.116h-20.06c-1.435,0-2.598,1.163-2.598,2.598v12.649L24,30.102l15.369-10.267
				V12.901z"/>
		</g>
		<polygon fill="#D8D6C9" points="39.369,12.901 39.369,12.901 39.369,12.901 		"/>
		<polygon fill="#D1D3D4" points="39.369,12.901 39.369,12.901 30.584,4.116 30.584,12.901 		"/>
	</g>
	<rect x="16.72" y="12.901" fill="#D1D3D4" width="13.855" height="2.192"/>
	<rect x="16.72" y="17.375" fill="#D1D3D4" width="13.855" height="2.192"/>
	<rect x="16.72" y="21.849" fill="#D1D3D4" width="13.855" height="2.192"/>
	<g>
		<polygon fill="none" points="24,30.102 26.376,28.514 21.624,28.514 		"/>
		<polygon fill="#DD5C4E" points="24,30.102 42.561,42.502 24,30.102 		"/>
	</g>
</g>
</svg>
