<?xml version="1.0" encoding="utf-8"?>
<!-- Generator: Adobe Illustrator 19.2.1, SVG Export Plug-In . SVG Version: 6.00 Build 0)  -->
<svg version="1.1" id="Layer_1" xmlns="http://www.w3.org/2000/svg" xmlns:xlink="http://www.w3.org/1999/xlink" x="0px" y="0px"
	 viewBox="0 0 48 48" style="enable-background:new 0 0 48 48;" xml:space="preserve">
<style type="text/css">
	.st0{fill:#3F4A5A;}
	.st1{fill:#00C8AB;}
	.st2{fill:#03B294;}
	.st3{fill:#059B7E;}
</style>
<path class="st0" d="M24.2,28.9c-2.5,0-4.5-2-4.5-4.5c0-2.5,2-4.4,4.5-4.4c2.5,0,4.4,2,4.4,4.5C28.6,26.9,26.6,28.9,24.2,28.9z"/>
<g>
	<path class="st1" d="M31.3,31.9c-2,1.9-4.4,2.8-7.2,2.8c0,0,0,0.1,0,0.1c0,2.3,0,4.6,0,6.9c0,0,0,0,0,0.1c0.3,0,0.6,0,0.8,0
		c0,0,0,0,0,0c0.2,0,0.4,0,0.6,0c0.9-0.1,1.7-0.2,2.5-0.4c3.1-0.7,5.8-2.2,8.1-4.4c1.3-1.2,2.4-2.7,3.3-4.2c0.9-1.5,1.5-3.2,1.9-4.9
		c0.2-0.7,0.3-1.5,0.3-2.3c0-0.2,0-0.3,0-0.5h-7.1C34.4,27.7,33.3,30.1,31.3,31.9z"/>
	<path class="st2" d="M41.7,22.9c-0.1-0.9-0.2-1.9-0.5-2.8C39.8,14.4,35.6,9.7,30,7.7c-1.4-0.5-2.8-0.8-4.3-1c-0.2,0-0.4,0-0.6-0.1
		c-0.1,0-0.1,0-0.2,0l0,7.1c2.6,0.2,4.8,1.2,6.6,3.1c1.8,1.8,2.8,4,3,6.5h7.1C41.7,23.2,41.7,23,41.7,22.9z"/>
	<g>
		<g>
			<path class="st3" d="M23.3,13.8l0-7.1c-0.1,0-0.3,0-0.4,0c-1,0.1-2.1,0.3-3.1,0.5c-5.2,1.4-9.6,5.1-11.7,10.1
				c-0.8,1.8-1.3,3.7-1.4,5.6c0,0.1,0,0.2,0,0.3c0,0,0,0.1,0,0.1h7.1c0.3-2.5,1.2-4.7,3-6.5C18.6,15,20.8,14,23.3,13.8z"/>
			<path class="st3" d="M6.7,25.1C6.7,25.1,6.7,25.2,6.7,25.1c0.1,0.8,0.2,1.6,0.3,2.3c0.5,2.3,1.4,4.4,2.7,6.4c0,0,0,0.1,0.1,0.1
				c0,0,0.1,0,0.1-0.1c1-0.7,2.1-1.4,3.1-2.1c0.2-0.2,0.5-0.3,0.7-0.5c0.1,0,0.1-0.1,0.1-0.2c0-2,0-4.1,0-6.1h-7
				C6.7,25,6.7,25.1,6.7,25.1z"/>
		</g>
	</g>
</g>
</svg>
