<?xml version="1.0" encoding="utf-8"?>
<!-- Generator: Adobe Illustrator 17.0.0, SVG Export Plug-In . SVG Version: 6.00 Build 0)  -->
<!DOCTYPE svg PUBLIC "-//W3C//DTD SVG 1.1//EN" "http://www.w3.org/Graphics/SVG/1.1/DTD/svg11.dtd">
<svg version="1.1" id="Layer_1" xmlns="http://www.w3.org/2000/svg" xmlns:xlink="http://www.w3.org/1999/xlink" x="0px" y="0px"
	 width="48px" height="48px" viewBox="0 0 48 48" enable-background="new 0 0 48 48" xml:space="preserve">
<g>
	<g>
		<path fill="#FFAC00" d="M39.2,6.267c1.397,0,2.533,1.136,2.533,2.533v30.4c0,1.397-1.136,2.533-2.533,2.533H8.8
			c-1.397,0-2.533-1.136-2.533-2.533V8.8c0-1.397,1.136-2.533,2.533-2.533H39.2 M39.2,5H8.8C6.701,5,5,6.701,5,8.8v30.4
			C5,41.299,6.701,43,8.8,43h30.4c2.099,0,3.8-1.701,3.8-3.8V8.8C43,6.701,41.299,5,39.2,5L39.2,5z"/>
	</g>
</g>
</svg>
