<?xml version="1.0" encoding="utf-8"?>
<!-- Generator: Adobe Illustrator 19.2.1, SVG Export Plug-In . SVG Version: 6.00 Build 0)  -->
<svg version="1.1" id="Layer_1" xmlns="http://www.w3.org/2000/svg" xmlns:xlink="http://www.w3.org/1999/xlink" x="0px" y="0px"
	 viewBox="0 0 48 48" style="enable-background:new 0 0 48 48;" xml:space="preserve">
<style type="text/css">
	.st0{clip-path:url(#SVGID_2_);}
	.st1{fill:#83BEFF;}
	.st2{fill:#02AF92;}
	.st3{fill:#00C8AB;}
	.st4{fill:#FFFFFF;}
	.st5{fill:#5395D6;}
	.st6{fill:#F1F2F2;}
	.st7{fill:#E6E7E8;}
</style>
<g>
	<g>
		<defs>
			<path id="SVGID_1_" d="M43,7.5C43,6.1,41.9,5,40.5,5H7.5C6.1,5,5,6.1,5,7.5v32.9C5,41.9,6.1,43,7.5,43l32.9,0
				c1.4,0,2.5-1.1,2.5-2.5L43,7.5z"/>
		</defs>
		<use xlink:href="#SVGID_1_"  style="overflow:visible;fill:#F1F2F2;"/>
		<clipPath id="SVGID_2_">
			<use xlink:href="#SVGID_1_"  style="overflow:visible;"/>
		</clipPath>
		<g class="st0">
			<path class="st1" d="M19.7,16c4.7-3.8,10.6-6.1,17.2-6.1c2.2,0,4.2,0.3,6.3,0.7V5H4.9v10.3c2-0.4,4-0.7,6.1-0.7
				C14.1,14.6,16.9,15.1,19.7,16z"/>
			<g>
				<path class="st2" d="M19.7,16c-2.7-0.9-5.6-1.4-8.6-1.4c-2.1,0-4.1,0.2-6.1,0.7v9.5h7.6C14.3,21.4,16.7,18.4,19.7,16z"/>
				<path class="st3" d="M19.7,16c-2.9,2.4-5.4,5.4-7.1,8.8h30.5V10.7c-2-0.5-4.1-0.7-6.3-0.7C30.3,9.9,24.3,12.2,19.7,16z"/>
			</g>
			<g>
				<path class="st4" d="M31.8,20.5h-5.7c-0.6,0-1.2-0.5-1.2-1.2v0c0-0.6,0.5-1.2,1.2-1.2h5.7c0.6,0,1.2,0.5,1.2,1.2v0
					C32.9,20,32.4,20.5,31.8,20.5z"/>
				<g>
					<rect x="25" y="13.4" class="st4" width="11.6" height="0.4"/>
					<rect x="25" y="14.6" class="st4" width="11.6" height="0.4"/>
					<rect x="25" y="11.3" class="st4" width="11.6" height="1.3"/>
					<rect x="25" y="15.8" class="st4" width="11.6" height="0.4"/>
				</g>
			</g>
			<g>
				<g>
					<g>
						<g>
							<path class="st4" d="M20.8,10.1c0.8,0,1.4,0.6,1.4,1.4l0,7.5c0,0.8-0.6,1.4-1.4,1.4l-7.8,0c-0.8,0-1.4-0.6-1.4-1.4l0-7.5
								c0-0.8,0.6-1.4,1.4-1.4L20.8,10.1z"/>
						</g>
					</g>
				</g>
				<g>
					<g>
						<path class="st5" d="M20.9,11.3h-8v4c3.2,0.2,6,1.2,8,2.8V11.3z"/>
						<path class="st3" d="M20.9,19.3v-1.2c-2-1.5-4.8-2.6-8-2.8v4H20.9z"/>
					</g>
					<circle class="st6" cx="18.6" cy="13.4" r="1.1"/>
				</g>
			</g>
		</g>
		<g class="st0">
			<rect x="9.6" y="27.7" class="st7" width="7.4" height="7.4"/>
			<rect x="20.3" y="27.7" class="st7" width="7.4" height="7.4"/>
			<rect x="31" y="27.7" class="st7" width="7.4" height="7.4"/>
			<g>
				<rect x="9.6" y="37.2" class="st7" width="28.8" height="0.4"/>
				<rect x="9.6" y="38.5" class="st7" width="28.8" height="0.4"/>
				<g>
					<rect x="9.6" y="39.7" class="st7" width="28.8" height="0.4"/>
				</g>
			</g>
		</g>
	</g>
</g>
</svg>
