<?xml version="1.0" encoding="utf-8"?>
<!-- Generator: Adobe Illustrator 17.0.0, SVG Export Plug-In . SVG Version: 6.00 Build 0)  -->
<!DOCTYPE svg PUBLIC "-//W3C//DTD SVG 1.1//EN" "http://www.w3.org/Graphics/SVG/1.1/DTD/svg11.dtd">
<svg version="1.1" id="Layer_1" xmlns="http://www.w3.org/2000/svg" xmlns:xlink="http://www.w3.org/1999/xlink" x="0px" y="0px"
	 width="48px" height="48px" viewBox="0 0 48 48" enable-background="new 0 0 48 48" xml:space="preserve">
<g>
	<path fill="#BCBEC0" d="M45.5,9.696c0-1.657-1.343-3-3-3h-37c-1.657,0-3,1.343-3,3v24.833h43V9.696z"/>
	<path fill="#D1D3D4" d="M18.507,38.82c-0.5,2.042-0.999,2.083-1.498,4.125c4.66,0,9.319,0,13.981,0
		c-0.5-2.041-0.999-2.083-1.498-4.125C25.829,38.82,22.169,38.82,18.507,38.82z"/>
	<path fill="#F1F2F2" d="M31.855,42.836h-15.71c-0.4,0-0.722,0.38-0.722,0.849v0.318h17.155v-0.318
		C32.577,43.217,32.253,42.836,31.855,42.836z"/>
	<rect x="4.5" y="8.695" fill="#F1F2F2" width="39" height="23.821"/>
	<path fill="#F1F2F2" d="M5.5,38.821h37c1.657,0,3-1.343,3-3v-1.292h-43v1.292C2.5,37.477,3.843,38.821,5.5,38.821z"/>
	<g>
		<rect x="7.216" y="15.351" fill="#ED7461" width="10.232" height="6.649"/>
		<rect x="7.216" y="23.178" fill="#BCBEC0" width="7.844" height="0.946"/>
		<rect x="7.216" y="11.848" fill="#BCBEC0" width="7.844" height="0.946"/>
		<rect x="38.685" y="12.115" fill="#BCBEC0" width="2.099" height="0.412"/>
		<rect x="35.343" y="12.115" fill="#BCBEC0" width="2.099" height="0.412"/>
		<rect x="32.001" y="12.115" fill="#BCBEC0" width="2.099" height="0.412"/>
		<rect x="28.658" y="12.115" fill="#ED7461" width="2.099" height="0.412"/>
		<rect x="18.884" y="15.351" fill="#00C8AB" width="10.232" height="6.649"/>
		<rect x="18.884" y="23.178" fill="#BCBEC0" width="7.844" height="0.946"/>
		<rect x="30.552" y="15.351" fill="#83BEFF" width="10.232" height="6.649"/>
		<rect x="30.552" y="23.178" fill="#BCBEC0" width="7.844" height="0.946"/>
		<rect x="7.216" y="24.779" fill="#BCBEC0" width="10.232" height="0.412"/>
		<rect x="7.216" y="25.869" fill="#BCBEC0" width="10.232" height="0.412"/>
		<rect x="7.216" y="26.96" fill="#BCBEC0" width="10.232" height="0.412"/>
		<rect x="7.216" y="28.05" fill="#BCBEC0" width="9.277" height="0.412"/>
		<rect x="7.216" y="29.14" fill="#BCBEC0" width="7.844" height="0.412"/>
		<rect x="18.884" y="24.779" fill="#BCBEC0" width="10.232" height="0.412"/>
		<rect x="18.884" y="25.869" fill="#BCBEC0" width="10.232" height="0.412"/>
		<rect x="18.884" y="26.96" fill="#BCBEC0" width="10.232" height="0.412"/>
		<rect x="18.884" y="28.05" fill="#BCBEC0" width="9.277" height="0.412"/>
		<rect x="18.884" y="29.14" fill="#BCBEC0" width="7.844" height="0.412"/>
		<rect x="30.552" y="24.779" fill="#BCBEC0" width="10.232" height="0.412"/>
		<rect x="30.552" y="25.869" fill="#BCBEC0" width="10.232" height="0.412"/>
		<rect x="30.552" y="26.96" fill="#BCBEC0" width="10.232" height="0.412"/>
		<rect x="30.552" y="28.05" fill="#BCBEC0" width="9.277" height="0.412"/>
		<rect x="30.552" y="29.14" fill="#BCBEC0" width="7.844" height="0.412"/>
	</g>
</g>
</svg>
