<?xml version="1.0" encoding="utf-8"?>
<!-- Generator: Adobe Illustrator 19.2.1, SVG Export Plug-In . SVG Version: 6.00 Build 0)  -->
<svg version="1.1" id="Layer_1" xmlns="http://www.w3.org/2000/svg" xmlns:xlink="http://www.w3.org/1999/xlink" x="0px" y="0px"
	 viewBox="0 0 48 48" style="enable-background:new 0 0 48 48;" xml:space="preserve">
<style type="text/css">
	.st0{fill:#EAEAEA;}
	.st1{fill:#D1D3D4;}
	.st2{fill:#F7F7F7;}
	.st3{fill:#83BEFF;}
	.st4{fill:#BCBEC0;}
</style>
<g>
	<g>
		<g>
			<g>
				<path class="st0" d="M4,37c0,0.2,0.1,0.5,0.3,0.7C4.5,37.9,4.7,38,4.9,38h15.8c0.2,0,0.5-0.1,0.7-0.3c0.2-0.2,0.3-0.4,0.3-0.7
					V14.1H4V37z"/>
				<path class="st1" d="M21.4,10.2C21.2,10.1,21,10,20.7,10H4.9c-0.2,0-0.5,0.1-0.7,0.3C4.1,10.4,4,10.7,4,10.9v3.1h17.7v-3.1
					C21.7,10.7,21.6,10.4,21.4,10.2z"/>
			</g>
			<g>
				<path class="st1" d="M13.2,20.3h-0.7c-0.3,0-0.6-0.1-0.8-0.3c-0.2-0.2-0.3-0.5-0.3-0.8c0-0.3,0.1-0.6,0.3-0.8
					c0.2-0.2,0.5-0.3,0.8-0.3l1.6,0v0.6l-1.6,0c-0.2,0-0.3,0.1-0.4,0.2c-0.1,0.1-0.2,0.2-0.2,0.4c0,0.2,0.1,0.3,0.2,0.4
					c0.1,0.1,0.3,0.2,0.4,0.2l0.7,0V20.3z"/>
				<path class="st1" d="M13.2,22l-1.6,0v-0.6l1.6,0c0.1,0,0.3-0.1,0.4-0.2c0.1-0.1,0.2-0.2,0.2-0.4c0-0.2-0.1-0.3-0.2-0.4
					c-0.1-0.1-0.3-0.2-0.4-0.2h-0.7v-0.6l0.7,0c0.3,0,0.6,0.1,0.8,0.3c0.2,0.2,0.3,0.5,0.3,0.8c0,0.3-0.1,0.6-0.3,0.8
					C13.8,21.9,13.5,22,13.2,22z"/>
				<rect x="12.5" y="17.8" class="st1" width="0.6" height="4.4"/>
			</g>
			<path class="st1" d="M16.1,34.4H9.6c-0.7,0-1.3-0.6-1.3-1.3v0c0-0.7,0.6-1.3,1.3-1.3h6.5c0.7,0,1.3,0.6,1.3,1.3v0
				C17.4,33.8,16.8,34.4,16.1,34.4z"/>
			<g>
				<rect x="6.1" y="24.5" class="st1" width="13.4" height="0.5"/>
				<rect x="6.1" y="25.8" class="st1" width="13.4" height="0.5"/>
				<rect x="6.1" y="27.1" class="st1" width="13.4" height="0.5"/>
			</g>
		</g>
		<g>
			<g>
				<path class="st0" d="M26.2,37c0,0.2,0.1,0.5,0.3,0.7c0.2,0.2,0.4,0.3,0.7,0.3H43c0.2,0,0.5-0.1,0.7-0.3c0.2-0.2,0.3-0.4,0.3-0.7
					V14.1H26.2V37z"/>
				<path class="st1" d="M43.6,10.2C43.5,10.1,43.2,10,43,10H27.2c-0.2,0-0.5,0.1-0.7,0.3c-0.2,0.2-0.3,0.4-0.3,0.7v3.1h17.7v-3.1
					C43.9,10.7,43.8,10.4,43.6,10.2z"/>
			</g>
			<g>
				<path class="st1" d="M35.5,20.3h-0.7c-0.3,0-0.6-0.1-0.8-0.3c-0.2-0.2-0.3-0.5-0.3-0.8c0-0.3,0.1-0.6,0.3-0.8
					c0.2-0.2,0.5-0.3,0.8-0.3l1.6,0v0.6l-1.6,0c-0.2,0-0.3,0.1-0.4,0.2c-0.1,0.1-0.2,0.2-0.2,0.4c0,0.2,0.1,0.3,0.2,0.4
					c0.1,0.1,0.3,0.2,0.4,0.2l0.7,0V20.3z"/>
				<path class="st1" d="M35.5,22l-1.6,0v-0.6l1.6,0c0.1,0,0.3-0.1,0.4-0.2C36,21.1,36,21,36,20.8c0-0.2-0.1-0.3-0.2-0.4
					c-0.1-0.1-0.3-0.2-0.4-0.2h-0.7l0-0.6l0.7,0c0.3,0,0.6,0.1,0.8,0.3c0.2,0.2,0.3,0.5,0.3,0.8c0,0.3-0.1,0.6-0.3,0.8
					C36,21.9,35.8,22,35.5,22z"/>
				<rect x="34.8" y="17.8" class="st1" width="0.6" height="4.4"/>
			</g>
			<path class="st1" d="M38.3,34.4h-6.5c-0.7,0-1.3-0.6-1.3-1.3v0c0-0.7,0.6-1.3,1.3-1.3h6.5c0.7,0,1.3,0.6,1.3,1.3v0
				C39.7,33.8,39.1,34.4,38.3,34.4z"/>
			<g>
				<rect x="28.4" y="24.5" class="st1" width="13.4" height="0.5"/>
				<rect x="28.4" y="25.8" class="st1" width="13.4" height="0.5"/>
				<rect x="28.4" y="27.2" class="st1" width="13.4" height="0.5"/>
			</g>
		</g>
	</g>
	<g>
		<g>
			<path class="st2" d="M15.1,40.2c0,0.2,0.1,0.5,0.3,0.7c0.2,0.2,0.4,0.3,0.7,0.3h15.8c0.2,0,0.5-0.1,0.7-0.3
				c0.2-0.2,0.3-0.4,0.3-0.7V11.8H15.1V40.2z"/>
			<path class="st3" d="M32.5,7.1c-0.2-0.2-0.4-0.3-0.7-0.3H16.1c-0.2,0-0.5,0.1-0.7,0.3c-0.2,0.2-0.3,0.4-0.3,0.7v4h17.7v-4
				C32.8,7.5,32.7,7.3,32.5,7.1z"/>
		</g>
		<g>
			<path class="st4" d="M24.5,19.9l-1,0c-0.4,0-0.8-0.2-1.1-0.5c-0.3-0.3-0.5-0.7-0.5-1.1c0-0.4,0.2-0.8,0.5-1.1
				c0.3-0.3,0.7-0.5,1.1-0.5l2.2,0v0.8l-2.2,0c-0.2,0-0.4,0.1-0.6,0.2c-0.2,0.2-0.2,0.3-0.2,0.6c0,0.2,0.1,0.4,0.2,0.6
				c0.2,0.2,0.4,0.2,0.6,0.2l1,0V19.9z"/>
			<path class="st4" d="M24.5,22.3l-2.2,0v-0.8l2.2,0c0.2,0,0.4-0.1,0.6-0.2c0.1-0.1,0.2-0.3,0.2-0.6c0-0.2-0.1-0.4-0.2-0.6
				c-0.2-0.1-0.4-0.2-0.6-0.2l-1,0v-0.8l1,0c0.4,0,0.8,0.2,1.1,0.5c0.3,0.3,0.5,0.7,0.5,1.1c0,0.4-0.2,0.8-0.5,1.1
				C25.3,22.1,24.9,22.3,24.5,22.3z"/>
			<rect x="23.6" y="16.4" class="st4" width="0.8" height="6.1"/>
		</g>
		<path class="st3" d="M27.2,36.7h-6.5c-0.7,0-1.3-0.6-1.3-1.3v0c0-0.7,0.6-1.3,1.3-1.3h6.5c0.7,0,1.3,0.6,1.3,1.3v0
			C28.6,36.1,28,36.7,27.2,36.7z"/>
		<g>
			<rect x="17.3" y="25" class="st4" width="13.4" height="0.6"/>
			<rect x="17.3" y="26.6" class="st4" width="13.4" height="0.6"/>
			<rect x="17.3" y="28.3" class="st4" width="13.4" height="0.6"/>
		</g>
	</g>
</g>
</svg>
