<?xml version="1.0" encoding="utf-8"?>
<!-- Generator: Adobe Illustrator 17.0.0, SVG Export Plug-In . SVG Version: 6.00 Build 0)  -->
<!DOCTYPE svg PUBLIC "-//W3C//DTD SVG 1.1//EN" "http://www.w3.org/Graphics/SVG/1.1/DTD/svg11.dtd">
<svg version="1.1" id="Layer_1" xmlns="http://www.w3.org/2000/svg" xmlns:xlink="http://www.w3.org/1999/xlink" x="0px" y="0px"
	 width="48px" height="48px" viewBox="0 0 48 48" enable-background="new 0 0 48 48" xml:space="preserve">
<g>
	<g>
		<g>
			<path fill="#F1F2F2" d="M4.518,41.135c0,1.583,1.283,2.867,2.867,2.867h33.23c1.583,0,2.867-1.283,2.867-2.867v-29.35H4.519
				v23.421L4.518,41.135z"/>
			<path fill="#5395D6" d="M40.614,4.031H7.385c-1.584,0-2.867,1.284-2.867,2.867v4.887h38.963V6.898
				C43.481,5.315,42.198,4.031,40.614,4.031z"/>
		</g>
		<circle fill="#ED7461" cx="8.292" cy="7.908" r="1.044"/>
		<circle fill="#FFAC00" cx="11.096" cy="7.908" r="1.044"/>
		<circle fill="#00C8AB" cx="13.9" cy="7.908" r="1.044"/>
	</g>
	<g>
		<g>
			<path fill="#5395D6" d="M20.501,34.307h-3.412c-0.551,0-0.997-0.447-0.997-0.997V20.617c0-0.55,0.446-0.997,0.997-0.997h3.412
				c0.551,0,0.997,0.447,0.997,0.997c0,0.55-0.446,0.997-0.997,0.997h-2.415v10.697h2.415c0.551,0,0.997,0.447,0.997,0.997
				C21.498,33.859,21.052,34.307,20.501,34.307z"/>
		</g>
		<g>
			<path fill="#5395D6" d="M30.911,34.307h-3.412c-0.551,0-0.997-0.447-0.997-0.997c0-0.55,0.446-0.997,0.997-0.997h2.415V21.615
				h-2.415c-0.551,0-0.997-0.447-0.997-0.997c0-0.55,0.446-0.997,0.997-0.997h3.412c0.551,0,0.997,0.447,0.997,0.997v12.693
				C31.908,33.86,31.462,34.307,30.911,34.307z"/>
		</g>
	</g>
</g>
</svg>
