<?xml version="1.0" encoding="utf-8"?>
<!-- Generator: Adobe Illustrator 17.0.0, SVG Export Plug-In . SVG Version: 6.00 Build 0)  -->
<!DOCTYPE svg PUBLIC "-//W3C//DTD SVG 1.1//EN" "http://www.w3.org/Graphics/SVG/1.1/DTD/svg11.dtd">
<svg version="1.1" id="Layer_1" xmlns="http://www.w3.org/2000/svg" xmlns:xlink="http://www.w3.org/1999/xlink" x="0px" y="0px"
	 width="48px" height="48px" viewBox="0 0 48 48" enable-background="new 0 0 48 48" xml:space="preserve">
<g>
	<path fill="#E6E7E8" d="M43.482,41.372c0,1.435-1.163,2.598-2.598,2.598H7.115c-1.435,0-2.598-1.163-2.598-2.598V6.628
		c0-1.435,1.163-2.598,2.598-2.598h33.769c1.435,0,2.598,1.163,2.598,2.598V41.372z"/>
	<g>
		<rect x="8.631" y="8.708" fill="#BCBEC0" width="30.738" height="1.832"/>
		<rect x="8.631" y="12.84" fill="#BCBEC0" width="19.915" height="18.31"/>
		<rect x="8.631" y="32.664" fill="#BCBEC0" width="19.915" height="1"/>
		<rect x="8.631" y="34.54" fill="#BCBEC0" width="19.915" height="1"/>
		<rect x="8.631" y="36.416" fill="#BCBEC0" width="19.915" height="1"/>
		<rect x="8.631" y="38.292" fill="#BCBEC0" width="19.915" height="1"/>
		<g>
			<rect x="30.278" y="12.84" fill="#ED7461" width="9.092" height="26.452"/>
			<g>
				<rect x="34.12" y="23.09" fill="#F1F2F2" width="1.407" height="5.953"/>
				<rect x="31.847" y="25.363" fill="#F1F2F2" width="5.953" height="1.407"/>
			</g>
		</g>
	</g>
</g>
</svg>
