<?xml version="1.0" encoding="utf-8"?>
<!-- Generator: Adobe Illustrator 19.2.1, SVG Export Plug-In . SVG Version: 6.00 Build 0)  -->
<svg version="1.1" id="Layer_1" xmlns="http://www.w3.org/2000/svg" xmlns:xlink="http://www.w3.org/1999/xlink" x="0px" y="0px"
	 viewBox="0 0 48 48" style="enable-background:new 0 0 48 48;" xml:space="preserve">
<style type="text/css">
	.st0{fill:#5395D6;}
	.st1{fill:#6C808D;}
	.st2{fill:#3765A3;}
	.st3{fill:#ED7461;}
</style>
<g>
	<g>
		<ellipse class="st0" cx="15.7" cy="10.4" rx="4.5" ry="5"/>
		<path class="st0" d="M11.2,10.4c0,0-0.5,6.4-6.2,5.2c3.1,6.8,14.4,5.5,15.1-4.6C16.7,9,11.2,10.4,11.2,10.4z"/>
		<path class="st0" d="M12.6,9.9c0,0-4.7,0.1-6-3.8c-2.1,3.8-0.4,8.9,3.5,9.2C14.3,15.6,12.6,9.9,12.6,9.9z"/>
		<path class="st0" d="M19.4,7.8c0,0,1.3-0.1,1.8-0.5c-0.4,1.1-1.1,1.5-1.1,1.5s0.9,0.1,1.5-0.2c-0.6,1.6-2,1.6-2,1.6L19.4,7.8z"/>
	</g>
	<g>
		<path class="st1" d="M22.7,29.8c0,2.4-0.1,4.8-0.1,7.2c0,0.3-0.1,0.6-0.1,0.8c-0.2,2.4-1.7,4.1-4,4.7c-0.6,0.1-1.2,0.2-1.8,0.2
			c-2.4,0-4.8-0.1-7.2-0.1c-0.2,0-0.5-0.1-0.7-0.1C6,42.4,4,40.4,3.9,37.6c0-2.9,0-5.9,0.1-8.8C4.2,26.1,6.2,24.1,9,24
			c2.9,0,5.9,0,8.8,0.1c2.4,0.1,4.1,1.7,4.6,4C22.6,28.7,22.6,29.3,22.7,29.8z M20.9,33.5c0-1.3,0.1-2.7,0.1-4
			c0-2.3-1.3-3.6-3.5-3.7c-2.7-0.1-5.3-0.1-8-0.1c-2.3,0-3.6,1.3-3.6,3.5c-0.1,2.7-0.1,5.3-0.1,8c0,2.3,1.3,3.6,3.6,3.7
			c2.7,0.1,5.3,0.1,8,0.1c2.2,0,3.5-1.3,3.6-3.5C20.9,36.2,20.8,34.8,20.9,33.5z"/>
		<path class="st1" d="M13.1,38.2c-2.7-0.1-4.8-2.3-4.7-4.9c0.1-2.7,2.3-4.8,4.9-4.7c2.7,0.1,4.7,2.2,4.7,4.9
			C18,36.1,15.8,38.2,13.1,38.2z M13.2,36.5c1.7,0,3.2-1.3,3.2-3c0-1.7-1.3-3.1-3-3.2c-1.8,0-3.2,1.3-3.2,3
			C10.1,35,11.4,36.4,13.2,36.5z"/>
		<path class="st1" d="M18.3,27.3c0.6,0,1.1,0.5,1.1,1.1c0,0.6-0.5,1.1-1.1,1.1c-0.6,0-1.1-0.5-1.1-1.1
			C17.2,27.8,17.7,27.3,18.3,27.3z"/>
	</g>
	<path class="st2" d="M36.5,28.8c0.2-0.2,0.3-0.3,0.5-0.4c0.1,0,0.2-0.1,0.4-0.1l2.4,0l0-4.3l-3.6,0c-0.9,0.1-1.6,0.2-2.3,0.6
		c-1.4,0.9-2.2,2.3-2.3,4.1c0,0.4,0,2.2,0,2.6l-2.9,0l0,4.3l2.9,0l0,7.2l4.7,0l0-7.2l2.7,0l0.8-4.3l-3.5,0c0-0.8,0-1.5,0-1.9
		C36.3,29.2,36.4,29,36.5,28.8z"/>
	<g>
		<path class="st3" d="M32.8,20.9c0.9-1.3,1.2-2.8,1.6-4.3c0.6,0.8,1.5,1,2.4,0.9c1.2-0.1,2.2-0.7,2.9-1.7c1-1.4,1.3-3,1-4.7
			c-0.4-1.9-1.6-3.1-3.3-3.7c-1.8-0.6-3.6-0.4-5.3,0.6C30.7,9,30,10.3,29.8,12c-0.1,1.1,0.2,2.2,0.9,3.1c0.2,0.3,0.5,0.5,0.8,0.7
			c0.2,0.1,0.3,0.1,0.3-0.1c0.1-0.3,0.2-0.6,0.2-0.9c0-0.1,0-0.2,0-0.3c-0.9-1.2-0.8-2.9,0.1-4.2c0.9-1.2,2.1-1.7,3.6-1.6
			c1,0.1,1.8,0.4,2.4,1.2c0.5,0.6,0.8,1.3,0.8,2.1c0.1,1-0.1,2-0.6,2.9c-0.4,0.7-0.9,1.2-1.6,1.4c-0.3,0.1-0.6,0.1-1,0
			c-0.6-0.2-1-0.8-0.8-1.5c0.2-0.7,0.4-1.3,0.6-2c0.1-0.4,0.2-0.8,0.1-1.1c-0.1-0.9-0.9-1.3-1.7-0.9c-0.5,0.3-0.8,0.7-0.9,1.3
			c-0.1,0.6-0.1,1.2,0.1,1.8c0,0.1,0,0.2,0,0.4c-0.3,1.4-0.7,2.8-1,4.2c-0.1,0.7-0.1,1.3,0,2c0,0.1,0,0.2,0,0.3c0,0,0,0,0,0.1
			c-3.6-1.3-6.4-5.5-5.2-10.3c1.3-4.8,6.3-7.5,11-6c4.7,1.5,7.2,6.7,5.5,11.3C41.7,20.4,36.7,22.2,32.8,20.9z"/>
	</g>
</g>
</svg>
