<?xml version="1.0" encoding="utf-8"?>
<!-- Generator: Adobe Illustrator 17.0.0, SVG Export Plug-In . SVG Version: 6.00 Build 0)  -->
<!DOCTYPE svg PUBLIC "-//W3C//DTD SVG 1.1//EN" "http://www.w3.org/Graphics/SVG/1.1/DTD/svg11.dtd">
<svg version="1.1" id="Layer_1" xmlns="http://www.w3.org/2000/svg" xmlns:xlink="http://www.w3.org/1999/xlink" x="0px" y="0px"
	 width="48px" height="48px" viewBox="0 0 48 48" enable-background="new 0 0 48 48" xml:space="preserve">
<g>
	<g>
		<path fill="#F1F2F2" d="M4.518,41.372c0,1.435,1.163,2.598,2.598,2.598h33.769c1.435,0,2.598-1.163,2.598-2.598V38.3H4.518V41.372
			z"/>
		<rect x="4.518" y="32.632" fill="#E6E7E8" width="38.964" height="5.651"/>
		<rect x="4.518" y="38.282" fill="#D8D6C9" width="38.964" height="0.018"/>
		<rect x="4.518" y="26.963" fill="#F1F2F2" width="38.964" height="5.651"/>
		<rect x="4.518" y="32.613" fill="#D8D6C9" width="38.964" height="0.018"/>
		<rect x="4.518" y="21.294" fill="#E6E7E8" width="38.964" height="5.651"/>
		<rect x="4.518" y="26.945" fill="#D8D6C9" width="38.964" height="0.018"/>
		<rect x="4.518" y="15.607" fill="#F1F2F2" width="38.964" height="5.669"/>
		<rect x="4.518" y="21.276" fill="#D8D6C9" width="38.964" height="0.018"/>
		<path fill="#00C8AB" d="M40.884,4.031H7.116c-1.435,0-2.598,1.163-2.598,2.598v8.979h38.964V6.628
			C43.482,5.194,42.319,4.031,40.884,4.031z"/>
		<g>
			<rect x="33.701" y="15.607" fill="#D1D3D4" width="0.433" height="28.362"/>
		</g>
		<g>
			<rect x="23.784" y="15.607" fill="#D1D3D4" width="0.433" height="28.362"/>
		</g>
		<g>
			<rect x="13.866" y="15.607" fill="#D1D3D4" width="0.433" height="28.362"/>
		</g>
	</g>
	<rect x="16.46" y="8.938" fill="#F1F2F2" width="15.081" height="1.762"/>
</g>
</svg>
