<?xml version="1.0" encoding="utf-8"?>
<!-- Generator: Adobe Illustrator 19.2.1, SVG Export Plug-In . SVG Version: 6.00 Build 0)  -->
<svg version="1.1" id="Layer_1" xmlns="http://www.w3.org/2000/svg" xmlns:xlink="http://www.w3.org/1999/xlink" x="0px" y="0px"
	 viewBox="0 0 48 48" style="enable-background:new 0 0 48 48;" xml:space="preserve">
<style type="text/css">
	.st0{fill:#E6E7E8;}
	.st1{fill:#ED7461;}
	.st2{fill:#FFAC00;}
	.st3{fill:#00C8AB;}
	.st4{fill:#FFFFFF;}
	.st5{fill:#BCBEC0;}
</style>
<g>
	<g>
		<g>
			<path class="st0" d="M40.6,4H7.4C5.8,4,4.5,5.3,4.5,6.9v4.9h39V6.9C43.5,5.3,42.2,4,40.6,4z"/>
			<circle class="st1" cx="8.3" cy="7.9" r="1"/>
			<circle class="st2" cx="11.1" cy="7.9" r="1"/>
			<circle class="st3" cx="13.9" cy="7.9" r="1"/>
		</g>
	</g>
	<rect x="5.8" y="11.8" class="st4" width="36.4" height="8.8"/>
	<g>
		<path class="st4" d="M5.8,20.6v19.5c0,1.4,1.2,2.6,2.6,2.6h31.2c1.4,0,2.6-1.2,2.6-2.6V20.6H5.8z"/>
		<path class="st0" d="M43.5,40.2V10.6h-1.3v29.5c0,1.4-1.2,2.6-2.6,2.6H8.4c-1.4,0-2.6-1.2-2.6-2.6V10.6H4.5v24.6l0,4.9
			c0,2.1,1.7,3.9,3.9,3.9h31.2C41.7,44,43.5,42.3,43.5,40.2z"/>
	</g>
	<g>
		<g>
			<rect x="9.5" y="14.7" class="st1" width="8.8" height="3.9"/>
		</g>
		<g>
			<g>
				<rect x="19.6" y="14.7" class="st5" width="8.8" height="3.9"/>
			</g>
		</g>
		<g>
			<rect x="29.7" y="14.7" class="st5" width="8.8" height="3.9"/>
		</g>
		<g>
			<rect x="5.8" y="18.6" class="st1" width="36.4" height="2"/>
		</g>
		<g>
			<rect x="9.5" y="23.1" class="st0" width="13.5" height="10.8"/>
			<rect x="9.5" y="35.5" class="st0" width="13.5" height="1.1"/>
			<rect x="9.5" y="37.6" class="st0" width="13.5" height="1.1"/>
			<g>
				<rect x="25" y="23.1" class="st0" width="13.5" height="10.8"/>
				<rect x="25" y="35.5" class="st0" width="13.5" height="1.1"/>
				<rect x="25" y="37.6" class="st0" width="13.5" height="1.1"/>
			</g>
		</g>
	</g>
</g>
</svg>
