<?xml version="1.0" encoding="utf-8"?>
<!-- Generator: Adobe Illustrator 19.2.1, SVG Export Plug-In . SVG Version: 6.00 Build 0)  -->
<svg version="1.1" id="Layer_1" xmlns="http://www.w3.org/2000/svg" xmlns:xlink="http://www.w3.org/1999/xlink" x="0px" y="0px"
	 viewBox="0 0 48 48" style="enable-background:new 0 0 48 48;" xml:space="preserve">
<style type="text/css">
	.st0{fill:#6C808D;}
	.st1{fill:#00C8AB;}
	.st2{fill:#FECE66;}
</style>
<g>
	<path class="st0" d="M34,28.1c1.6,0,2.9-0.7,3.9-1.8c-0.4-0.1-0.8-0.2-1.3-0.3v-0.7c0.4-0.3,0.8-0.7,1.1-1.1
		c1.2,2.4,4.7,1.1,4.7-0.3c-1.2,0.2-1.4-2-1.1-3.6c0.3-1.7-1-2.2-1.7-2.4c0.2-0.4,0.2-0.9,0.2-1.3c0-2.5-2.5-4.6-5.7-4.6
		s-5.7,2.1-5.7,4.6c0,0,0,0.1,0,0.1l0,0l0,0.2c0,0.1,0,0.2,0,0.3l0.3,2.6c-0.5,0.4-0.8,1.1-0.5,1.8c0.2,0.7,0.8,1.1,1.4,1.2
		c0.3,1,0.9,1.8,1.7,2.4v0.9c-0.4,0.1-0.8,0.2-1.2,0.3C31.2,27.5,32.5,28.1,34,28.1z"/>
	<path class="st1" d="M24.2,32.9L24.2,32.9c0,0.5,0.2,1,0.6,1.4c0.4,0.4,0.9,0.6,1.4,0.6h16.5v0c0.4-0.1,0.8-0.2,1.1-0.5
		c0.4-0.4,0.6-0.9,0.6-1.4c0-3-2.7-5.5-6.5-6.5c-1,1.1-2.4,1.8-3.9,1.8c-1.5,0-2.8-0.6-3.8-1.6C26.7,27.6,24.2,30,24.2,32.9z"/>
</g>
<g>
	<path class="st0" d="M16.9,29.7c2.1,0,4-0.9,5.3-2.4c-0.6-0.2-1.2-0.3-1.8-0.4v-1c1.1-0.8,2-2,2.4-3.3c0.8-0.1,1.6-0.7,1.8-1.6
		c0.3-0.9,0-1.7-0.5-2.3l0.4-3.9c0-0.3,0.1-0.5,0.1-0.8c0-1.6-0.8-2.9-2-3.5c-0.3-1.2-1.6-2.1-3.2-2.1c-0.8,0-1.6,0.2-2.1,0.6
		c-0.8-0.6-1.8-1-2.9-1c-2.8,0-5.1,2.4-5.1,5.3c0,0.4,0,0.7,0.1,1.1l0.4,4.1c-0.7,0.5-1,1.5-0.7,2.5c0.3,0.9,1.1,1.5,2,1.6
		c0.4,1.3,1.3,2.5,2.3,3.3v1.3c-0.5,0.1-1.1,0.3-1.6,0.4C13.1,28.9,14.9,29.7,16.9,29.7z"/>
	<path class="st2" d="M3.7,36.2L3.7,36.2c0.1,0.7,0.3,1.3,0.8,1.8c0.5,0.5,1.2,0.8,1.8,0.8l22.4,0v0c0.6-0.1,1.1-0.3,1.5-0.7
		c0.5-0.5,0.8-1.2,0.8-1.8c0-4-3.7-7.5-8.8-8.8c-1.3,1.5-3.2,2.4-5.3,2.4c-2,0-3.8-0.8-5.1-2.2C7,29,3.7,32.3,3.7,36.2z"/>
</g>
</svg>
