<?xml version="1.0" encoding="utf-8"?>
<!-- Generator: Adobe Illustrator 19.2.1, SVG Export Plug-In . SVG Version: 6.00 Build 0)  -->
<svg version="1.1" id="Layer_1" xmlns="http://www.w3.org/2000/svg" xmlns:xlink="http://www.w3.org/1999/xlink" x="0px" y="0px"
	 viewBox="0 0 48 48" style="enable-background:new 0 0 48 48;" xml:space="preserve">
<style type="text/css">
	.st0{fill:#FECE66;}
</style>
<g>
	<path class="st0" d="M20.4,37.2H7.9v-9c0-3.6,0.3-5.8,1-7.9c0.6-2.1,1.8-4,3.5-5.6s3.9-3,6.6-3.9l2.5,5.2c-2.5,0.8-4.3,2-5.4,3.5
		s-1.7,2.8-1.7,5.2h6.1V37.2z M39.1,37.2H26.6v-9c0-3.7,0.3-5.8,1-7.9c0.6-2.1,1.8-4,3.6-5.6c1.7-1.7,3.9-3,6.6-3.9l2.5,5.2
		c-2.5,0.8-4.3,2-5.4,3.5c-1.1,1.5-1.7,2.8-1.7,5.2h6.1V37.2z"/>
</g>
</svg>
