<?xml version="1.0" encoding="utf-8"?>
<!-- Generator: Adobe Illustrator 19.0.0, SVG Export Plug-In . SVG Version: 6.00 Build 0)  -->
<svg version="1.1" id="Layer_1" xmlns="http://www.w3.org/2000/svg" xmlns:xlink="http://www.w3.org/1999/xlink" x="0px" y="0px"
	 viewBox="-725 477 48 48" style="enable-background:new -725 477 48 48;" xml:space="preserve">
<style type="text/css">
	.st0{fill:#00C8AB;}
	.st1{fill:#D1D3D4;}
</style>
<g>
	<g>
		<path class="st0" d="M-715.9,514.9h4v-23.8h-6.3v5h-5.2v-9.9h29.2v9.9h-5.2v-5h-6.3v23.8h4v4.6h-14.2V514.9z"/>
	</g>
</g>
<path class="st1" d="M-680,518.1c-2.3,0-4.2-1.9-4.2-4.2v-25.8c0-2.3,1.9-4.2,4.2-4.2c0.9,0,1.6-0.7,1.6-1.6c0-0.9-0.7-1.7-1.6-1.7
	c-2.4,0-4.5,1.1-5.9,2.8c-1.4-1.7-3.5-2.8-5.9-2.8c-0.9,0-1.6,0.7-1.6,1.6c0,0.9,0.7,1.6,1.6,1.6c2.3,0,4.2,1.9,4.2,4.2v25.8
	c0,2.3-1.9,4.2-4.2,4.2c-0.9,0-1.6,0.7-1.6,1.6c0,0.9,0.7,1.6,1.6,1.6c2.4,0,4.5-1.1,5.9-2.8c1.4,1.7,3.5,2.8,5.9,2.8
	c0.9,0,1.6-0.7,1.6-1.6C-678.4,518.7-679.1,518.1-680,518.1z"/>
</svg>
