<?xml version="1.0" encoding="utf-8"?>
<!-- Generator: Adobe Illustrator 19.0.0, SVG Export Plug-In . SVG Version: 6.00 Build 0)  -->
<svg version="1.1" id="Layer_1" xmlns="http://www.w3.org/2000/svg" xmlns:xlink="http://www.w3.org/1999/xlink" x="0px" y="0px"
	 viewBox="-725 477 48 48" style="enable-background:new -725 477 48 48;" xml:space="preserve">
<style type="text/css">
	.st0{fill:#FFAC00;}
	.st1{fill:#E6E7E8;}
	.st2{fill:#FFFFFF;}
</style>
<path class="st0" d="M-683,496.9h-36c-0.8,0-1.5-0.7-1.5-1.5v-5.7c0-0.8,0.7-1.5,1.5-1.5h36c0.8,0,1.5,0.7,1.5,1.5v5.7
	C-681.5,496.2-682.2,496.9-683,496.9z"/>
<rect x="-718.2" y="500" class="st1" width="34.5" height="1.9"/>
<rect x="-718.2" y="491.5" class="st2" width="15.2" height="1.9"/>
<rect x="-718.2" y="504" class="st1" width="34.5" height="1.9"/>
<rect x="-718.2" y="508" class="st1" width="34.5" height="1.9"/>
<rect x="-718.2" y="512" class="st1" width="34.5" height="1.9"/>
<polygon class="st2" points="-685.1,491.6 -686.7,492.5 -688.3,491.6 -688.6,492.2 -686.7,493.3 -684.8,492.2 "/>
</svg>
