<?xml version="1.0" encoding="utf-8"?>
<!-- Generator: Adobe Illustrator 17.0.0, SVG Export Plug-In . SVG Version: 6.00 Build 0)  -->
<!DOCTYPE svg PUBLIC "-//W3C//DTD SVG 1.1//EN" "http://www.w3.org/Graphics/SVG/1.1/DTD/svg11.dtd">
<svg version="1.1" id="Layer_1" xmlns="http://www.w3.org/2000/svg" xmlns:xlink="http://www.w3.org/1999/xlink" x="0px" y="0px"
	 width="48px" height="48px" viewBox="0 0 48 48" enable-background="new 0 0 48 48" xml:space="preserve">
<g>
	<g>
		<path fill="#00C8AB" d="M43.483,23.988l0-16.685c0-1.575-1.276-2.851-2.851-2.851l-16.626,0l0,19.536L43.483,23.988z"/>
	</g>
	<g>
		<path fill="#6C808D" d="M24.006,43.548l16.626,0c1.575,0,2.851-1.276,2.851-2.851l0-16.697l-19.477,0L24.006,43.548z"/>
	</g>
	<g>
		<g>
			<path fill="#5395D6" d="M24.006,4.452l-16.637,0c-1.575,0-2.851,1.277-2.851,2.851l0,16.685l19.488,0L24.006,4.452z"/>
		</g>
		<g>
			<g>
				<path fill="#F1F2F2" d="M19.222,18.614l-2.718-2.396c1.207-1.628,1.072-3.938-0.404-5.414c-1.624-1.624-4.258-1.624-5.882,0
					c-0.001,0.001-0.003,0.003-0.004,0.004c-1.62,1.625-1.619,4.255,0.004,5.878c1.476,1.476,3.785,1.611,5.414,0.404l2.396,2.718
					c0.391,0.391,0.613,0.405,0.987,0.032l0.116-0.116l0.124-0.124C19.627,19.228,19.613,19.005,19.222,18.614z M11.083,15.822
					c-1.145-1.145-1.146-3.001-0.003-4.148c0.001-0.001,0.002-0.002,0.003-0.003c1.146-1.146,3.005-1.146,4.151,0
					c1.146,1.146,1.146,3.005,0,4.151c-0.001,0.001-0.002,0.002-0.003,0.003C14.084,16.968,12.228,16.967,11.083,15.822z"/>
			</g>
		</g>
	</g>
	<g>
		<g>
			<rect x="32.873" y="29.699" fill="#F1F2F2" width="1.441" height="8.15"/>
		</g>
		<g>
			<rect x="29.518" y="33.054" fill="#F1F2F2" width="8.15" height="1.441"/>
		</g>
	</g>
	<g>
		<g>
			<path fill="#ED7461" d="M7.369,43.536l16.637,0l0-19.548l-19.488,0l0,16.696C4.518,42.259,5.795,43.536,7.369,43.536z"/>
		</g>
		<g>
			<g>
				<g>
					<path fill="#F1F2F2" d="M15.627,38.444H14.18v-0.262c0.009-1.156-0.43-2.24-1.237-3.06c-0.808-0.82-1.886-1.276-3.036-1.284
						H9.611v-1.447h0.301c1.542,0.012,2.983,0.621,4.061,1.716c1.078,1.094,1.665,2.544,1.653,4.081V38.444z"/>
				</g>
			</g>
			<g>
				<g>
					<path fill="#F1F2F2" d="M18.913,38.444h-1.447v-0.249c0.033-4.199-3.352-7.636-7.546-7.669H9.611v-1.447h0.314
						c4.997,0.038,9.025,4.13,8.987,9.121V38.444z"/>
				</g>
			</g>
			<g>
				<g>
					<circle fill="#F1F2F2" cx="10.843" cy="37.213" r="1.231"/>
				</g>
			</g>
		</g>
	</g>
	<g>
		<path fill="#F1F2F2" d="M30.688,20.536v-3.051H29.66c-0.747,0-1.354-0.607-1.354-1.354v-5.468c0-0.746,0.607-1.354,1.354-1.354
			h7.849c0.747,0,1.354,0.607,1.354,1.354v5.468c0,0.747-0.607,1.354-1.354,1.354h-2.88L30.688,20.536z M29.66,10.43
			c-0.129,0-0.234,0.105-0.234,0.233v5.468c0,0.129,0.105,0.234,0.234,0.234h2.148v1.888l2.438-1.888h3.263
			c0.129,0,0.234-0.105,0.234-0.234v-5.468c0-0.128-0.105-0.233-0.234-0.233H29.66z"/>
	</g>
	<g>
		<path fill="#F1F2F2" d="M32.124,13.53c0,0.381-0.309,0.69-0.69,0.69l0,0c-0.381,0-0.69-0.309-0.69-0.69l0,0
			c0-0.381,0.309-0.69,0.69-0.69l0,0C31.815,12.84,32.124,13.149,32.124,13.53L32.124,13.53z"/>
	</g>
	<g>
		<path fill="#F1F2F2" d="M34.275,13.53c0,0.381-0.309,0.69-0.69,0.69l0,0c-0.381,0-0.69-0.309-0.69-0.69l0,0
			c0-0.381,0.309-0.69,0.69-0.69l0,0C33.966,12.84,34.275,13.149,34.275,13.53L34.275,13.53z"/>
	</g>
	<g>
		<path fill="#F1F2F2" d="M36.426,13.53c0,0.381-0.309,0.69-0.69,0.69l0,0c-0.381,0-0.69-0.309-0.69-0.69l0,0
			c0-0.381,0.309-0.69,0.69-0.69l0,0C36.117,12.84,36.426,13.149,36.426,13.53L36.426,13.53z"/>
	</g>
</g>
</svg>
