<?xml version="1.0" encoding="utf-8"?>
<!-- Generator: Adobe Illustrator 19.2.1, SVG Export Plug-In . SVG Version: 6.00 Build 0)  -->
<svg version="1.1" id="Layer_1" xmlns="http://www.w3.org/2000/svg" xmlns:xlink="http://www.w3.org/1999/xlink" x="0px" y="0px"
	 viewBox="0 0 48 48" style="enable-background:new 0 0 48 48;" xml:space="preserve">
<style type="text/css">
	.st0{fill:#9A5C8E;}
	.st1{fill:#FEFEFE;}
</style>
<g>
	<path class="st0" d="M4.5,29.6c0-4.3,0-8.6,0-12.9c0,0,0,0,0-0.1c0-0.1,0-0.2,0-0.3c0.3-1.5,1.5-2.7,3.1-2.9c0,0,0,0,0.1,0
		c10.8,0,21.6,0,32.4,0c0,0,0,0,0.1,0c0.3,0,0.7,0.1,1,0.3c1.2,0.6,2,1.5,2.2,2.9c0,0,0,0,0,0.1c0,4.3,0,8.6,0,12.9c0,0,0,0,0,0
		c0,0,0,0,0,0c0,0,0,0,0,0.1c-0.1,0.9-0.5,1.6-1.2,2.2c-0.7,0.6-1.5,0.9-2.4,0.9c-3.7,0-7.5,0-11.2,0c0,0-0.1,0-0.1,0
		c0.5,1.3,1,2.5,1.5,3.8c0,0-0.1,0-0.1,0c-2.2-1.2-4.4-2.5-6.6-3.7c-0.1,0-0.1,0-0.2,0c-4.9,0-9.9,0-14.8,0c-0.2,0-0.5,0-0.7-0.1
		c-1.2-0.2-2-0.9-2.6-1.9C4.7,30.5,4.6,30.1,4.5,29.6C4.5,29.7,4.5,29.6,4.5,29.6z M10.7,25.8C10.7,25.8,10.7,25.8,10.7,25.8
		c-0.2-0.9-0.4-1.7-0.6-2.6c-0.2-1-0.4-2.1-0.6-3.1c-0.1-0.8-0.2-1.5-0.4-2.3c0-0.3-0.1-0.5-0.1-0.8c-0.1-0.3-0.3-0.6-0.6-0.7
		c-0.3-0.1-0.5-0.1-0.8-0.1c-0.8,0.1-1.2,0.8-1.1,1.4c0.1,0.5,0.2,1,0.2,1.6c0.2,1.1,0.4,2.2,0.6,3.2c0.3,1.4,0.5,2.8,0.9,4.2
		c0.3,1,0.5,2.1,0.9,3c0.1,0.3,0.3,0.6,0.5,0.8c0.2,0.2,0.4,0.3,0.7,0.3c0.2,0,0.3-0.1,0.5-0.2c0.2-0.2,0.4-0.3,0.6-0.5
		c0.5-0.6,0.9-1.3,1.3-2c0.7-1.4,1.4-2.8,2.1-4.2c0.1-0.1,0.1-0.2,0.2-0.4c0,0,0,0.1,0,0.1c0.4,1.3,0.8,2.6,1.5,3.8
		c0.5,1,1.2,2,1.9,2.8c0.2,0.2,0.5,0.4,0.8,0.6c0.5,0.2,0.9,0.1,1.2-0.3c0.2-0.3,0.3-0.6,0.4-1c0-0.3,0-0.5,0-0.8c0-1,0-1.9,0.1-2.9
		c0.1-0.8,0.2-1.5,0.3-2.3c0.1-1,0.3-2,0.6-3c0.2-1.1,0.5-2.1,1.1-3.1c0.1-0.3,0.2-0.5,0.1-0.8c-0.1-0.4-0.3-0.7-0.7-0.9
		c-0.5-0.3-1.4-0.3-1.8,0.4c-0.1,0.2-0.2,0.4-0.3,0.6c-0.4,0.9-0.7,1.8-0.9,2.7c-0.2,0.9-0.4,1.7-0.5,2.6c-0.1,0.8-0.2,1.7-0.3,2.5
		c0,0.1,0,0.2,0,0.4c0,0,0-0.1-0.1-0.1c-0.1-0.4-0.3-0.8-0.4-1.2c-0.4-1.2-0.7-2.5-1-3.7c-0.1-0.3-0.1-0.6-0.2-0.9
		c-0.1-0.2-0.2-0.5-0.5-0.6c-0.4-0.3-0.9-0.2-1.3,0.1c-0.3,0.2-0.4,0.4-0.6,0.7c-1.1,2.1-2.2,4.1-3.2,6.2
		C10.8,25.6,10.8,25.7,10.7,25.8z M32.4,24.2c0,0.3,0,0.7,0.1,1c0.1,0.8,0.3,1.6,0.8,2.3c0.3,0.5,0.7,0.9,1.2,1.2
		c0.6,0.3,1.2,0.5,1.8,0.6c0.6,0.1,1.2,0,1.8-0.3c0.7-0.3,1.3-0.8,1.7-1.4c0.7-0.9,1.2-1.9,1.4-3c0.2-0.9,0.3-1.9,0.2-2.8
		c-0.1-0.8-0.3-1.6-0.7-2.4c-0.3-0.5-0.6-0.9-1.1-1.2c-0.7-0.5-1.4-0.7-2.2-0.7c-1,0-1.9,0.3-2.6,0.9c-0.6,0.5-1,1.1-1.3,1.7
		C32.7,21.3,32.4,22.7,32.4,24.2z M22.5,24.1c0,0.3,0,0.7,0.1,1c0.1,0.8,0.3,1.5,0.7,2.2c0.5,0.9,1.2,1.5,2.2,1.8
		c0.7,0.2,1.4,0.2,2.2,0.1c0.8-0.2,1.4-0.6,2-1.2c0.7-0.8,1.2-1.7,1.5-2.7c0.4-1.2,0.6-2.5,0.4-3.8c-0.1-0.8-0.3-1.5-0.7-2.1
		c-0.3-0.5-0.6-0.9-1.1-1.2c-0.7-0.5-1.4-0.7-2.2-0.7c-0.8,0-1.5,0.2-2.2,0.6c-0.5,0.4-1,0.8-1.4,1.4C23,20.8,22.5,22.4,22.5,24.1z"
		/>
	<path class="st1" d="M10.7,25.8c0.1-0.1,0.1-0.3,0.2-0.4c1.1-2.1,2.2-4.1,3.2-6.2c0.1-0.3,0.3-0.5,0.6-0.7c0.4-0.3,0.9-0.3,1.3-0.1
		c0.2,0.2,0.4,0.4,0.5,0.6c0.1,0.3,0.2,0.6,0.2,0.9c0.2,1.3,0.6,2.5,1,3.7c0.1,0.4,0.3,0.8,0.4,1.2c0,0,0,0.1,0.1,0.1
		c0-0.1,0-0.2,0-0.4c0.1-0.8,0.2-1.7,0.3-2.5c0.1-0.9,0.3-1.7,0.5-2.6c0.2-0.9,0.5-1.8,0.9-2.7c0.1-0.2,0.2-0.4,0.3-0.6
		c0.4-0.7,1.3-0.7,1.8-0.4c0.3,0.2,0.6,0.5,0.7,0.9c0.1,0.3,0,0.6-0.1,0.8c-0.5,1-0.8,2-1.1,3.1c-0.2,1-0.4,2-0.6,3
		c-0.1,0.8-0.2,1.5-0.3,2.3c-0.1,1-0.2,1.9-0.1,2.9c0,0.3,0,0.5,0,0.8c0,0.4-0.1,0.7-0.4,1c-0.3,0.3-0.8,0.4-1.2,0.3
		c-0.3-0.1-0.5-0.3-0.8-0.6c-0.8-0.8-1.4-1.8-1.9-2.8c-0.6-1.2-1.1-2.5-1.5-3.8c0,0,0-0.1,0-0.1c-0.1,0.1-0.1,0.3-0.2,0.4
		c-0.7,1.4-1.4,2.8-2.1,4.2c-0.4,0.7-0.8,1.4-1.3,2c-0.2,0.2-0.4,0.4-0.6,0.5c-0.1,0.1-0.3,0.2-0.5,0.2C10,31,9.8,30.9,9.6,30.7
		c-0.2-0.2-0.4-0.5-0.5-0.8c-0.4-1-0.7-2-0.9-3c-0.3-1.4-0.6-2.8-0.9-4.2c-0.2-1.1-0.4-2.2-0.6-3.2c-0.1-0.5-0.2-1-0.2-1.6
		c-0.1-0.6,0.3-1.4,1.1-1.4c0.3,0,0.5,0,0.8,0.1c0.3,0.1,0.5,0.4,0.6,0.7c0.1,0.2,0.1,0.5,0.1,0.8c0.1,0.8,0.2,1.5,0.4,2.3
		c0.2,1,0.4,2.1,0.6,3.1C10.3,24.1,10.5,24.9,10.7,25.8C10.7,25.8,10.7,25.8,10.7,25.8z"/>
	<path class="st1" d="M32.4,24.2c0-1.5,0.4-2.9,1.1-4.2c0.4-0.6,0.8-1.2,1.3-1.7c0.8-0.6,1.6-1,2.6-0.9c0.8,0,1.5,0.2,2.2,0.7
		c0.5,0.3,0.8,0.8,1.1,1.2c0.4,0.7,0.6,1.5,0.7,2.4c0.1,1,0,1.9-0.2,2.8c-0.3,1.1-0.7,2.1-1.4,3c-0.5,0.6-1,1.1-1.7,1.4
		c-0.6,0.2-1.2,0.3-1.8,0.3c-0.6-0.1-1.3-0.2-1.8-0.6c-0.5-0.3-0.9-0.7-1.2-1.2c-0.4-0.7-0.7-1.5-0.8-2.3
		C32.4,24.9,32.4,24.5,32.4,24.2z M38.8,22.5c0-0.3,0-0.7-0.2-1.1c-0.1-0.3-0.2-0.7-0.4-0.9c-0.3-0.5-0.8-0.6-1.4-0.4
		c-0.3,0.1-0.5,0.3-0.7,0.6c-0.6,0.8-1,1.6-1.1,2.6c-0.1,0.7-0.1,1.3,0.1,2c0.1,0.3,0.2,0.7,0.5,1c0.2,0.2,0.5,0.4,0.8,0.3
		c0.2,0,0.4-0.1,0.6-0.2c0.5-0.3,0.8-0.7,1.1-1.3C38.6,24.3,38.8,23.5,38.8,22.5z"/>
	<path class="st1" d="M22.5,24.1c0-1.7,0.5-3.3,1.5-4.7c0.4-0.5,0.8-1,1.4-1.4c0.7-0.4,1.4-0.6,2.2-0.6c0.8,0,1.5,0.2,2.2,0.7
		c0.5,0.3,0.8,0.7,1.1,1.2c0.4,0.7,0.6,1.4,0.7,2.1c0.2,1.3,0,2.6-0.4,3.8c-0.3,1-0.8,1.9-1.5,2.7c-0.5,0.6-1.2,1-2,1.2
		c-0.7,0.2-1.5,0.1-2.2-0.1c-1-0.3-1.7-0.9-2.2-1.8c-0.4-0.7-0.6-1.4-0.7-2.2C22.5,24.8,22.5,24.4,22.5,24.1z M25.1,24
		c0,0.3,0,0.5,0.1,0.8c0.1,0.4,0.2,0.8,0.5,1.2c0.1,0.2,0.3,0.3,0.5,0.4c0.3,0.1,0.6,0.1,0.9,0c0.5-0.2,0.8-0.6,1.1-1
		c0.5-0.8,0.7-1.6,0.8-2.6c0-0.4,0-0.8-0.1-1.2c-0.1-0.4-0.2-0.8-0.5-1.1C28,20,27.5,19.9,27,20.1c-0.2,0.1-0.4,0.3-0.6,0.5
		C25.5,21.6,25.1,22.7,25.1,24z"/>
	<path class="st0" d="M38.8,22.5c0,1-0.2,1.8-0.6,2.5c-0.3,0.5-0.6,0.9-1.1,1.3c-0.2,0.1-0.4,0.2-0.6,0.2c-0.3,0-0.6-0.1-0.8-0.3
		c-0.2-0.3-0.4-0.6-0.5-1c-0.2-0.7-0.2-1.3-0.1-2c0.1-1,0.5-1.8,1.1-2.6c0.2-0.2,0.4-0.4,0.7-0.6c0.5-0.2,1-0.1,1.4,0.4
		c0.2,0.3,0.3,0.6,0.4,0.9C38.8,21.8,38.8,22.3,38.8,22.5z"/>
	<path class="st0" d="M25.1,24c0-1.3,0.4-2.5,1.3-3.4c0.2-0.2,0.4-0.4,0.6-0.5c0.5-0.2,1.1-0.1,1.4,0.4c0.2,0.3,0.4,0.7,0.5,1.1
		c0.1,0.4,0.1,0.8,0.1,1.2c-0.1,0.9-0.3,1.8-0.8,2.6c-0.3,0.4-0.6,0.8-1.1,1c-0.3,0.1-0.6,0.2-0.9,0c-0.2-0.1-0.3-0.2-0.5-0.4
		c-0.2-0.4-0.4-0.8-0.5-1.2C25.1,24.6,25.1,24.3,25.1,24z"/>
</g>
</svg>
